<mxfile host="Electron" agent="Mozilla/5.0 (Windows NT 10.0; Win64; x64) AppleWebKit/537.36 (KHTML, like Gecko) draw.io/28.0.6 Chrome/138.0.7204.100 Electron/37.2.3 Safari/537.36" version="28.0.6">
  <diagram name="Pagina-1" id="stsg-VHXCKW48UEf2oJJ">
    <mxGraphModel dx="834" dy="501" grid="1" gridSize="10" guides="1" tooltips="1" connect="1" arrows="1" fold="1" page="1" pageScale="1" pageWidth="827" pageHeight="1169" math="0" shadow="0">
      <root>
        <mxCell id="0" />
        <mxCell id="1" parent="0" />
        <mxCell id="Z68hn9O-Tgvw7mRsMY7y-1" value="&lt;font style=&quot;font-size: 40px;&quot;&gt;+&lt;/font&gt;" style="ellipse;whiteSpace=wrap;html=1;aspect=fixed;" parent="1" vertex="1">
          <mxGeometry x="470" y="605" width="50" height="50" as="geometry" />
        </mxCell>
        <mxCell id="Z68hn9O-Tgvw7mRsMY7y-2" value="&lt;font style=&quot;font-size: 40px;&quot;&gt;+&lt;/font&gt;" style="ellipse;whiteSpace=wrap;html=1;aspect=fixed;" parent="1" vertex="1">
          <mxGeometry x="590" y="605" width="50" height="50" as="geometry" />
        </mxCell>
        <mxCell id="Z68hn9O-Tgvw7mRsMY7y-3" value="&lt;font style=&quot;font-size: 40px;&quot;&gt;+&lt;/font&gt;" style="ellipse;whiteSpace=wrap;html=1;aspect=fixed;" parent="1" vertex="1">
          <mxGeometry x="590" y="605" width="50" height="50" as="geometry" />
        </mxCell>
        <mxCell id="Z68hn9O-Tgvw7mRsMY7y-4" value="&lt;font style=&quot;font-size: 40px;&quot;&gt;+&lt;/font&gt;" style="ellipse;whiteSpace=wrap;html=1;aspect=fixed;" parent="1" vertex="1">
          <mxGeometry x="590" y="605" width="50" height="50" as="geometry" />
        </mxCell>
        <mxCell id="Z68hn9O-Tgvw7mRsMY7y-5" value="&lt;font style=&quot;font-size: 40px;&quot;&gt;+&lt;/font&gt;" style="ellipse;whiteSpace=wrap;html=1;aspect=fixed;" parent="1" vertex="1">
          <mxGeometry x="590" y="605" width="50" height="50" as="geometry" />
        </mxCell>
        <mxCell id="Z68hn9O-Tgvw7mRsMY7y-6" value="&lt;font style=&quot;font-size: 40px;&quot;&gt;+&lt;/font&gt;" style="ellipse;whiteSpace=wrap;html=1;aspect=fixed;" parent="1" vertex="1">
          <mxGeometry x="710" y="605" width="50" height="50" as="geometry" />
        </mxCell>
        <mxCell id="Z68hn9O-Tgvw7mRsMY7y-7" value="&lt;font style=&quot;font-size: 40px;&quot;&gt;+&lt;/font&gt;" style="ellipse;whiteSpace=wrap;html=1;aspect=fixed;" parent="1" vertex="1">
          <mxGeometry x="830" y="605" width="50" height="50" as="geometry" />
        </mxCell>
        <mxCell id="Z68hn9O-Tgvw7mRsMY7y-8" value="&lt;font style=&quot;font-size: 40px;&quot;&gt;+&lt;/font&gt;" style="ellipse;whiteSpace=wrap;html=1;aspect=fixed;" parent="1" vertex="1">
          <mxGeometry x="950" y="605" width="50" height="50" as="geometry" />
        </mxCell>
        <mxCell id="Z68hn9O-Tgvw7mRsMY7y-9" value="&lt;font style=&quot;font-size: 40px;&quot;&gt;+&lt;/font&gt;" style="ellipse;whiteSpace=wrap;html=1;aspect=fixed;" parent="1" vertex="1">
          <mxGeometry x="1190" y="605" width="50" height="50" as="geometry" />
        </mxCell>
        <mxCell id="Z68hn9O-Tgvw7mRsMY7y-10" value="&lt;font style=&quot;font-size: 40px;&quot;&gt;+&lt;/font&gt;" style="ellipse;whiteSpace=wrap;html=1;aspect=fixed;" parent="1" vertex="1">
          <mxGeometry x="1072" y="605" width="50" height="50" as="geometry" />
        </mxCell>
        <mxCell id="Z68hn9O-Tgvw7mRsMY7y-11" value="" style="ellipse;whiteSpace=wrap;html=1;aspect=fixed;" parent="1" vertex="1">
          <mxGeometry x="350" y="475" width="50" height="50" as="geometry" />
        </mxCell>
        <mxCell id="Z68hn9O-Tgvw7mRsMY7y-12" value="&lt;font style=&quot;font-size: 60px;&quot;&gt;*&lt;/font&gt;" style="text;html=1;align=center;verticalAlign=middle;whiteSpace=wrap;rounded=0;" parent="1" vertex="1">
          <mxGeometry x="345" y="498" width="60" height="30" as="geometry" />
        </mxCell>
        <mxCell id="Z68hn9O-Tgvw7mRsMY7y-13" value="" style="ellipse;whiteSpace=wrap;html=1;aspect=fixed;" parent="1" vertex="1">
          <mxGeometry x="470" y="475" width="50" height="50" as="geometry" />
        </mxCell>
        <mxCell id="Z68hn9O-Tgvw7mRsMY7y-14" value="&lt;font style=&quot;font-size: 60px;&quot;&gt;*&lt;/font&gt;" style="text;html=1;align=center;verticalAlign=middle;whiteSpace=wrap;rounded=0;" parent="1" vertex="1">
          <mxGeometry x="465" y="498" width="60" height="30" as="geometry" />
        </mxCell>
        <mxCell id="Z68hn9O-Tgvw7mRsMY7y-15" value="" style="ellipse;whiteSpace=wrap;html=1;aspect=fixed;" parent="1" vertex="1">
          <mxGeometry x="830" y="475" width="50" height="50" as="geometry" />
        </mxCell>
        <mxCell id="Z68hn9O-Tgvw7mRsMY7y-16" value="&lt;font style=&quot;font-size: 60px;&quot;&gt;*&lt;/font&gt;" style="text;html=1;align=center;verticalAlign=middle;whiteSpace=wrap;rounded=0;" parent="1" vertex="1">
          <mxGeometry x="825" y="498" width="60" height="30" as="geometry" />
        </mxCell>
        <mxCell id="Z68hn9O-Tgvw7mRsMY7y-17" value="" style="ellipse;whiteSpace=wrap;html=1;aspect=fixed;" parent="1" vertex="1">
          <mxGeometry x="710" y="475" width="50" height="50" as="geometry" />
        </mxCell>
        <mxCell id="Z68hn9O-Tgvw7mRsMY7y-18" value="&lt;font style=&quot;font-size: 60px;&quot;&gt;*&lt;/font&gt;" style="text;html=1;align=center;verticalAlign=middle;whiteSpace=wrap;rounded=0;" parent="1" vertex="1">
          <mxGeometry x="705" y="498" width="60" height="30" as="geometry" />
        </mxCell>
        <mxCell id="Z68hn9O-Tgvw7mRsMY7y-19" value="" style="ellipse;whiteSpace=wrap;html=1;aspect=fixed;" parent="1" vertex="1">
          <mxGeometry x="590" y="475" width="50" height="50" as="geometry" />
        </mxCell>
        <mxCell id="Z68hn9O-Tgvw7mRsMY7y-20" value="&lt;font style=&quot;font-size: 60px;&quot;&gt;*&lt;/font&gt;" style="text;html=1;align=center;verticalAlign=middle;whiteSpace=wrap;rounded=0;" parent="1" vertex="1">
          <mxGeometry x="585" y="498" width="60" height="30" as="geometry" />
        </mxCell>
        <mxCell id="Z68hn9O-Tgvw7mRsMY7y-21" value="" style="ellipse;whiteSpace=wrap;html=1;aspect=fixed;" parent="1" vertex="1">
          <mxGeometry x="950" y="472" width="50" height="50" as="geometry" />
        </mxCell>
        <mxCell id="Z68hn9O-Tgvw7mRsMY7y-22" value="&lt;font style=&quot;font-size: 60px;&quot;&gt;*&lt;/font&gt;" style="text;html=1;align=center;verticalAlign=middle;whiteSpace=wrap;rounded=0;" parent="1" vertex="1">
          <mxGeometry x="945" y="495" width="60" height="30" as="geometry" />
        </mxCell>
        <mxCell id="Z68hn9O-Tgvw7mRsMY7y-29" value="" style="endArrow=classic;html=1;rounded=0;entryX=0.5;entryY=1;entryDx=0;entryDy=0;exitX=0.5;exitY=0;exitDx=0;exitDy=0;" parent="1" source="CbF84web4NkX9h8tGIaV-1" edge="1">
          <mxGeometry width="50" height="50" relative="1" as="geometry">
            <mxPoint x="160" y="395" as="sourcePoint" />
            <mxPoint x="420" y="395" as="targetPoint" />
          </mxGeometry>
        </mxCell>
        <mxCell id="Z68hn9O-Tgvw7mRsMY7y-30" value="" style="endArrow=classic;html=1;rounded=0;exitX=0.5;exitY=0;exitDx=0;exitDy=0;entryX=0.002;entryY=0.146;entryDx=0;entryDy=0;entryPerimeter=0;" parent="1" edge="1">
          <mxGeometry width="50" height="50" relative="1" as="geometry">
            <mxPoint x="455" y="395" as="sourcePoint" />
            <mxPoint x="540.1199999999999" y="394.38" as="targetPoint" />
          </mxGeometry>
        </mxCell>
        <mxCell id="Z68hn9O-Tgvw7mRsMY7y-31" value="" style="endArrow=classic;html=1;rounded=0;exitX=0.5;exitY=0;exitDx=0;exitDy=0;entryX=0.5;entryY=1;entryDx=0;entryDy=0;" parent="1" target="Z68hn9O-Tgvw7mRsMY7y-193" edge="1">
          <mxGeometry width="50" height="50" relative="1" as="geometry">
            <mxPoint x="575" y="394.5" as="sourcePoint" />
            <mxPoint x="655" y="395" as="targetPoint" />
          </mxGeometry>
        </mxCell>
        <mxCell id="Z68hn9O-Tgvw7mRsMY7y-33" value="" style="endArrow=classic;html=1;rounded=0;exitX=0.5;exitY=0;exitDx=0;exitDy=0;entryX=0;entryY=0.15;entryDx=0;entryDy=0;entryPerimeter=0;" parent="1" edge="1">
          <mxGeometry width="50" height="50" relative="1" as="geometry">
            <mxPoint x="815" y="394.5" as="sourcePoint" />
            <mxPoint x="900" y="394.5" as="targetPoint" />
          </mxGeometry>
        </mxCell>
        <mxCell id="Z68hn9O-Tgvw7mRsMY7y-34" value="" style="endArrow=classic;html=1;rounded=0;exitX=0.5;exitY=0;exitDx=0;exitDy=0;entryX=0.009;entryY=0.135;entryDx=0;entryDy=0;entryPerimeter=0;" parent="1" edge="1">
          <mxGeometry width="50" height="50" relative="1" as="geometry">
            <mxPoint x="935" y="394.5" as="sourcePoint" />
            <mxPoint x="1012.54" y="394.05000000000007" as="targetPoint" />
          </mxGeometry>
        </mxCell>
        <mxCell id="Z68hn9O-Tgvw7mRsMY7y-35" value="" style="endArrow=classic;html=1;rounded=0;entryX=0.5;entryY=0;entryDx=0;entryDy=0;" parent="1" target="Z68hn9O-Tgvw7mRsMY7y-11" edge="1">
          <mxGeometry width="50" height="50" relative="1" as="geometry">
            <mxPoint x="374.5" y="395" as="sourcePoint" />
            <mxPoint x="374.5" y="465" as="targetPoint" />
          </mxGeometry>
        </mxCell>
        <mxCell id="Z68hn9O-Tgvw7mRsMY7y-36" value="" style="endArrow=classic;html=1;rounded=0;entryX=0.5;entryY=0;entryDx=0;entryDy=0;" parent="1" edge="1">
          <mxGeometry width="50" height="50" relative="1" as="geometry">
            <mxPoint x="494.5" y="395" as="sourcePoint" />
            <mxPoint x="495" y="475" as="targetPoint" />
          </mxGeometry>
        </mxCell>
        <mxCell id="Z68hn9O-Tgvw7mRsMY7y-37" value="" style="endArrow=classic;html=1;rounded=0;entryX=0.5;entryY=0;entryDx=0;entryDy=0;" parent="1" edge="1">
          <mxGeometry width="50" height="50" relative="1" as="geometry">
            <mxPoint x="614.5" y="395" as="sourcePoint" />
            <mxPoint x="615" y="475" as="targetPoint" />
          </mxGeometry>
        </mxCell>
        <mxCell id="Z68hn9O-Tgvw7mRsMY7y-38" value="" style="endArrow=classic;html=1;rounded=0;entryX=0.5;entryY=0;entryDx=0;entryDy=0;" parent="1" edge="1">
          <mxGeometry width="50" height="50" relative="1" as="geometry">
            <mxPoint x="734.5" y="395" as="sourcePoint" />
            <mxPoint x="735" y="475" as="targetPoint" />
          </mxGeometry>
        </mxCell>
        <mxCell id="Z68hn9O-Tgvw7mRsMY7y-39" value="" style="endArrow=classic;html=1;rounded=0;entryX=0.5;entryY=0;entryDx=0;entryDy=0;" parent="1" edge="1">
          <mxGeometry width="50" height="50" relative="1" as="geometry">
            <mxPoint x="854.5" y="395" as="sourcePoint" />
            <mxPoint x="855" y="475" as="targetPoint" />
          </mxGeometry>
        </mxCell>
        <mxCell id="Z68hn9O-Tgvw7mRsMY7y-40" value="" style="endArrow=classic;html=1;rounded=0;entryX=0.5;entryY=0;entryDx=0;entryDy=0;" parent="1" edge="1">
          <mxGeometry width="50" height="50" relative="1" as="geometry">
            <mxPoint x="975" y="395" as="sourcePoint" />
            <mxPoint x="975.5" y="475" as="targetPoint" />
          </mxGeometry>
        </mxCell>
        <mxCell id="Z68hn9O-Tgvw7mRsMY7y-41" value="" style="ellipse;whiteSpace=wrap;html=1;aspect=fixed;" parent="1" vertex="1">
          <mxGeometry x="1072" y="475" width="50" height="50" as="geometry" />
        </mxCell>
        <mxCell id="Z68hn9O-Tgvw7mRsMY7y-42" value="&lt;font style=&quot;font-size: 60px;&quot;&gt;*&lt;/font&gt;" style="text;html=1;align=center;verticalAlign=middle;whiteSpace=wrap;rounded=0;" parent="1" vertex="1">
          <mxGeometry x="1067" y="498" width="60" height="30" as="geometry" />
        </mxCell>
        <mxCell id="Z68hn9O-Tgvw7mRsMY7y-43" value="" style="endArrow=classic;html=1;rounded=0;exitX=0.5;exitY=1;exitDx=0;exitDy=0;entryX=0;entryY=0.5;entryDx=0;entryDy=0;" parent="1" source="Z68hn9O-Tgvw7mRsMY7y-12" target="Z68hn9O-Tgvw7mRsMY7y-1" edge="1">
          <mxGeometry width="50" height="50" relative="1" as="geometry">
            <mxPoint x="685" y="675" as="sourcePoint" />
            <mxPoint x="735" y="625" as="targetPoint" />
            <Array as="points">
              <mxPoint x="375" y="630" />
            </Array>
          </mxGeometry>
        </mxCell>
        <mxCell id="Z68hn9O-Tgvw7mRsMY7y-44" value="" style="endArrow=classic;html=1;rounded=0;exitX=0.5;exitY=1;exitDx=0;exitDy=0;entryX=0.5;entryY=0;entryDx=0;entryDy=0;" parent="1" source="Z68hn9O-Tgvw7mRsMY7y-14" target="Z68hn9O-Tgvw7mRsMY7y-1" edge="1">
          <mxGeometry width="50" height="50" relative="1" as="geometry">
            <mxPoint x="685" y="675" as="sourcePoint" />
            <mxPoint x="735" y="625" as="targetPoint" />
          </mxGeometry>
        </mxCell>
        <mxCell id="Z68hn9O-Tgvw7mRsMY7y-45" value="" style="endArrow=classic;html=1;rounded=0;exitX=0.5;exitY=1;exitDx=0;exitDy=0;entryX=0.5;entryY=0;entryDx=0;entryDy=0;" parent="1" edge="1">
          <mxGeometry width="50" height="50" relative="1" as="geometry">
            <mxPoint x="614.5" y="528" as="sourcePoint" />
            <mxPoint x="614.5" y="605" as="targetPoint" />
          </mxGeometry>
        </mxCell>
        <mxCell id="Z68hn9O-Tgvw7mRsMY7y-46" value="" style="endArrow=classic;html=1;rounded=0;exitX=0.5;exitY=1;exitDx=0;exitDy=0;entryX=0.5;entryY=0;entryDx=0;entryDy=0;" parent="1" edge="1">
          <mxGeometry width="50" height="50" relative="1" as="geometry">
            <mxPoint x="734.5" y="528" as="sourcePoint" />
            <mxPoint x="734.5" y="605" as="targetPoint" />
          </mxGeometry>
        </mxCell>
        <mxCell id="Z68hn9O-Tgvw7mRsMY7y-47" value="" style="endArrow=classic;html=1;rounded=0;exitX=0.5;exitY=1;exitDx=0;exitDy=0;entryX=0.5;entryY=0;entryDx=0;entryDy=0;" parent="1" edge="1">
          <mxGeometry width="50" height="50" relative="1" as="geometry">
            <mxPoint x="854.5" y="528" as="sourcePoint" />
            <mxPoint x="854.5" y="605" as="targetPoint" />
          </mxGeometry>
        </mxCell>
        <mxCell id="Z68hn9O-Tgvw7mRsMY7y-48" value="" style="endArrow=classic;html=1;rounded=0;exitX=0.5;exitY=1;exitDx=0;exitDy=0;entryX=0.5;entryY=0;entryDx=0;entryDy=0;" parent="1" edge="1">
          <mxGeometry width="50" height="50" relative="1" as="geometry">
            <mxPoint x="974.5" y="525" as="sourcePoint" />
            <mxPoint x="974.5" y="602" as="targetPoint" />
          </mxGeometry>
        </mxCell>
        <mxCell id="Z68hn9O-Tgvw7mRsMY7y-49" value="" style="endArrow=classic;html=1;rounded=0;exitX=1;exitY=0.5;exitDx=0;exitDy=0;" parent="1" source="Z68hn9O-Tgvw7mRsMY7y-1" edge="1">
          <mxGeometry width="50" height="50" relative="1" as="geometry">
            <mxPoint x="685" y="675" as="sourcePoint" />
            <mxPoint x="585" y="630" as="targetPoint" />
          </mxGeometry>
        </mxCell>
        <mxCell id="Z68hn9O-Tgvw7mRsMY7y-50" value="" style="endArrow=classic;html=1;rounded=0;exitX=1;exitY=0.5;exitDx=0;exitDy=0;" parent="1" edge="1">
          <mxGeometry width="50" height="50" relative="1" as="geometry">
            <mxPoint x="642.5" y="629.8" as="sourcePoint" />
            <mxPoint x="707.5" y="629.8" as="targetPoint" />
          </mxGeometry>
        </mxCell>
        <mxCell id="Z68hn9O-Tgvw7mRsMY7y-51" value="" style="endArrow=classic;html=1;rounded=0;exitX=1;exitY=0.5;exitDx=0;exitDy=0;" parent="1" edge="1">
          <mxGeometry width="50" height="50" relative="1" as="geometry">
            <mxPoint x="762.5" y="629.8" as="sourcePoint" />
            <mxPoint x="827.5" y="629.8" as="targetPoint" />
          </mxGeometry>
        </mxCell>
        <mxCell id="Z68hn9O-Tgvw7mRsMY7y-52" value="" style="endArrow=classic;html=1;rounded=0;exitX=1;exitY=0.5;exitDx=0;exitDy=0;" parent="1" edge="1">
          <mxGeometry width="50" height="50" relative="1" as="geometry">
            <mxPoint x="882.5" y="629.8" as="sourcePoint" />
            <mxPoint x="947.5" y="629.8" as="targetPoint" />
          </mxGeometry>
        </mxCell>
        <mxCell id="Z68hn9O-Tgvw7mRsMY7y-53" value="" style="endArrow=classic;html=1;rounded=0;exitX=1;exitY=0.5;exitDx=0;exitDy=0;" parent="1" edge="1">
          <mxGeometry width="50" height="50" relative="1" as="geometry">
            <mxPoint x="1002" y="629.8" as="sourcePoint" />
            <mxPoint x="1067" y="629.8" as="targetPoint" />
          </mxGeometry>
        </mxCell>
        <mxCell id="Z68hn9O-Tgvw7mRsMY7y-54" value="" style="ellipse;whiteSpace=wrap;html=1;aspect=fixed;" parent="1" vertex="1">
          <mxGeometry x="1190" y="475" width="50" height="50" as="geometry" />
        </mxCell>
        <mxCell id="Z68hn9O-Tgvw7mRsMY7y-55" value="&lt;font style=&quot;font-size: 60px;&quot;&gt;*&lt;/font&gt;" style="text;html=1;align=center;verticalAlign=middle;whiteSpace=wrap;rounded=0;" parent="1" vertex="1">
          <mxGeometry x="1185" y="498" width="60" height="30" as="geometry" />
        </mxCell>
        <mxCell id="Z68hn9O-Tgvw7mRsMY7y-56" value="" style="endArrow=classic;html=1;rounded=0;exitX=0.5;exitY=1;exitDx=0;exitDy=0;entryX=0.5;entryY=0;entryDx=0;entryDy=0;" parent="1" source="Z68hn9O-Tgvw7mRsMY7y-55" target="Z68hn9O-Tgvw7mRsMY7y-9" edge="1">
          <mxGeometry width="50" height="50" relative="1" as="geometry">
            <mxPoint x="1214.76" y="522" as="sourcePoint" />
            <mxPoint x="1214.76" y="599" as="targetPoint" />
          </mxGeometry>
        </mxCell>
        <mxCell id="Z68hn9O-Tgvw7mRsMY7y-57" value="" style="endArrow=classic;html=1;rounded=0;exitX=1;exitY=0.5;exitDx=0;exitDy=0;entryX=0;entryY=0.5;entryDx=0;entryDy=0;" parent="1" source="Z68hn9O-Tgvw7mRsMY7y-10" target="Z68hn9O-Tgvw7mRsMY7y-9" edge="1">
          <mxGeometry width="50" height="50" relative="1" as="geometry">
            <mxPoint x="625" y="465" as="sourcePoint" />
            <mxPoint x="675" y="415" as="targetPoint" />
          </mxGeometry>
        </mxCell>
        <mxCell id="Z68hn9O-Tgvw7mRsMY7y-62" value="" style="endArrow=classic;html=1;rounded=0;exitX=0.5;exitY=0;exitDx=0;exitDy=0;entryX=-0.02;entryY=0.159;entryDx=0;entryDy=0;entryPerimeter=0;" parent="1" edge="1">
          <mxGeometry width="50" height="50" relative="1" as="geometry">
            <mxPoint x="1175" y="395" as="sourcePoint" />
            <mxPoint x="1258.7999999999997" y="394.77" as="targetPoint" />
          </mxGeometry>
        </mxCell>
        <mxCell id="Z68hn9O-Tgvw7mRsMY7y-63" value="" style="endArrow=classic;html=1;rounded=0;entryX=0.5;entryY=0;entryDx=0;entryDy=0;" parent="1" target="Z68hn9O-Tgvw7mRsMY7y-54" edge="1">
          <mxGeometry width="50" height="50" relative="1" as="geometry">
            <mxPoint x="1215" y="395" as="sourcePoint" />
            <mxPoint x="1065" y="445" as="targetPoint" />
          </mxGeometry>
        </mxCell>
        <mxCell id="Z68hn9O-Tgvw7mRsMY7y-64" value="" style="endArrow=classic;html=1;rounded=0;exitX=0.5;exitY=1;exitDx=0;exitDy=0;entryX=0.5;entryY=0;entryDx=0;entryDy=0;" parent="1" source="Z68hn9O-Tgvw7mRsMY7y-42" target="Z68hn9O-Tgvw7mRsMY7y-10" edge="1">
          <mxGeometry width="50" height="50" relative="1" as="geometry">
            <mxPoint x="1095" y="585" as="sourcePoint" />
            <mxPoint x="1145" y="535" as="targetPoint" />
          </mxGeometry>
        </mxCell>
        <mxCell id="Z68hn9O-Tgvw7mRsMY7y-65" value="&lt;font style=&quot;font-size: 40px;&quot;&gt;+&lt;/font&gt;" style="ellipse;whiteSpace=wrap;html=1;aspect=fixed;" parent="1" vertex="1">
          <mxGeometry x="1310" y="605" width="50" height="50" as="geometry" />
        </mxCell>
        <mxCell id="Z68hn9O-Tgvw7mRsMY7y-66" value="" style="ellipse;whiteSpace=wrap;html=1;aspect=fixed;" parent="1" vertex="1">
          <mxGeometry x="1310" y="472" width="50" height="50" as="geometry" />
        </mxCell>
        <mxCell id="Z68hn9O-Tgvw7mRsMY7y-67" value="&lt;font style=&quot;font-size: 60px;&quot;&gt;*&lt;/font&gt;" style="text;html=1;align=center;verticalAlign=middle;whiteSpace=wrap;rounded=0;" parent="1" vertex="1">
          <mxGeometry x="1305" y="495" width="60" height="30" as="geometry" />
        </mxCell>
        <mxCell id="Z68hn9O-Tgvw7mRsMY7y-68" value="" style="endArrow=classic;html=1;rounded=0;exitX=0.5;exitY=1;exitDx=0;exitDy=0;entryX=0.5;entryY=0;entryDx=0;entryDy=0;" parent="1" source="Z68hn9O-Tgvw7mRsMY7y-67" target="Z68hn9O-Tgvw7mRsMY7y-65" edge="1">
          <mxGeometry width="50" height="50" relative="1" as="geometry">
            <mxPoint x="1334.76" y="519" as="sourcePoint" />
            <mxPoint x="1334.76" y="596" as="targetPoint" />
          </mxGeometry>
        </mxCell>
        <mxCell id="Z68hn9O-Tgvw7mRsMY7y-69" value="" style="endArrow=classic;html=1;rounded=0;exitX=1;exitY=0.5;exitDx=0;exitDy=0;entryX=0;entryY=0.5;entryDx=0;entryDy=0;" parent="1" source="Z68hn9O-Tgvw7mRsMY7y-9" target="Z68hn9O-Tgvw7mRsMY7y-65" edge="1">
          <mxGeometry width="50" height="50" relative="1" as="geometry">
            <mxPoint x="1315" y="565" as="sourcePoint" />
            <mxPoint x="1365" y="515" as="targetPoint" />
          </mxGeometry>
        </mxCell>
        <mxCell id="Z68hn9O-Tgvw7mRsMY7y-70" value="" style="endArrow=classic;html=1;rounded=0;exitX=0.5;exitY=0;exitDx=0;exitDy=0;entryX=0.5;entryY=0;entryDx=0;entryDy=0;" parent="1" target="Z68hn9O-Tgvw7mRsMY7y-66" edge="1">
          <mxGeometry width="50" height="50" relative="1" as="geometry">
            <mxPoint x="1295" y="395" as="sourcePoint" />
            <mxPoint x="1315" y="495" as="targetPoint" />
            <Array as="points">
              <mxPoint x="1335" y="395" />
            </Array>
          </mxGeometry>
        </mxCell>
        <mxCell id="Z68hn9O-Tgvw7mRsMY7y-72" value="" style="endArrow=classic;html=1;rounded=0;fillColor=#008a00;strokeColor=#005700;" parent="1" edge="1">
          <mxGeometry width="50" height="50" relative="1" as="geometry">
            <mxPoint x="310" y="560" as="sourcePoint" />
            <mxPoint x="350" y="515" as="targetPoint" />
          </mxGeometry>
        </mxCell>
        <mxCell id="Z68hn9O-Tgvw7mRsMY7y-73" value="B" style="edgeLabel;html=1;align=center;verticalAlign=middle;resizable=0;points=[];" parent="Z68hn9O-Tgvw7mRsMY7y-72" connectable="0" vertex="1">
          <mxGeometry x="-0.065" y="-4" relative="1" as="geometry">
            <mxPoint x="1" as="offset" />
          </mxGeometry>
        </mxCell>
        <mxCell id="Z68hn9O-Tgvw7mRsMY7y-74" value="&lt;font style=&quot;font-size: 14px;&quot;&gt;B0&lt;/font&gt;" style="edgeLabel;html=1;align=center;verticalAlign=middle;resizable=0;points=[];" parent="Z68hn9O-Tgvw7mRsMY7y-72" connectable="0" vertex="1">
          <mxGeometry x="0.0433" y="-3" relative="1" as="geometry">
            <mxPoint as="offset" />
          </mxGeometry>
        </mxCell>
        <mxCell id="Z68hn9O-Tgvw7mRsMY7y-75" value="" style="endArrow=classic;html=1;rounded=0;fillColor=#008a00;strokeColor=#005700;" parent="1" edge="1">
          <mxGeometry width="50" height="50" relative="1" as="geometry">
            <mxPoint x="430" y="560" as="sourcePoint" />
            <mxPoint x="470" y="515" as="targetPoint" />
          </mxGeometry>
        </mxCell>
        <mxCell id="Z68hn9O-Tgvw7mRsMY7y-76" value="&lt;font style=&quot;font-size: 15px;&quot;&gt;B1&lt;/font&gt;" style="edgeLabel;html=1;align=center;verticalAlign=middle;resizable=0;points=[];" parent="Z68hn9O-Tgvw7mRsMY7y-75" connectable="0" vertex="1">
          <mxGeometry x="-0.065" y="-4" relative="1" as="geometry">
            <mxPoint x="1" as="offset" />
          </mxGeometry>
        </mxCell>
        <mxCell id="Z68hn9O-Tgvw7mRsMY7y-77" value="" style="endArrow=classic;html=1;rounded=0;fillColor=#008a00;strokeColor=#005700;" parent="1" edge="1">
          <mxGeometry width="50" height="50" relative="1" as="geometry">
            <mxPoint x="570" y="560" as="sourcePoint" />
            <mxPoint x="600" y="522" as="targetPoint" />
          </mxGeometry>
        </mxCell>
        <mxCell id="Z68hn9O-Tgvw7mRsMY7y-78" value="&lt;font style=&quot;font-size: 15px;&quot;&gt;B2&lt;/font&gt;" style="edgeLabel;html=1;align=center;verticalAlign=middle;resizable=0;points=[];" parent="Z68hn9O-Tgvw7mRsMY7y-77" connectable="0" vertex="1">
          <mxGeometry x="-0.065" y="-4" relative="1" as="geometry">
            <mxPoint x="3" y="-5" as="offset" />
          </mxGeometry>
        </mxCell>
        <mxCell id="Z68hn9O-Tgvw7mRsMY7y-79" value="" style="endArrow=classic;html=1;rounded=0;fillColor=#008a00;strokeColor=#005700;" parent="1" edge="1">
          <mxGeometry width="50" height="50" relative="1" as="geometry">
            <mxPoint x="690" y="560" as="sourcePoint" />
            <mxPoint x="721" y="522" as="targetPoint" />
          </mxGeometry>
        </mxCell>
        <mxCell id="Z68hn9O-Tgvw7mRsMY7y-80" value="&lt;font style=&quot;font-size: 15px;&quot;&gt;B3&lt;/font&gt;" style="edgeLabel;html=1;align=center;verticalAlign=middle;resizable=0;points=[];" parent="Z68hn9O-Tgvw7mRsMY7y-79" connectable="0" vertex="1">
          <mxGeometry x="-0.065" y="-4" relative="1" as="geometry">
            <mxPoint x="7" as="offset" />
          </mxGeometry>
        </mxCell>
        <mxCell id="Z68hn9O-Tgvw7mRsMY7y-81" value="" style="endArrow=classic;html=1;rounded=0;fillColor=#008a00;strokeColor=#005700;" parent="1" edge="1">
          <mxGeometry width="50" height="50" relative="1" as="geometry">
            <mxPoint x="810" y="560" as="sourcePoint" />
            <mxPoint x="840" y="522" as="targetPoint" />
          </mxGeometry>
        </mxCell>
        <mxCell id="Z68hn9O-Tgvw7mRsMY7y-82" value="&lt;font style=&quot;font-size: 15px;&quot;&gt;B4&lt;/font&gt;" style="edgeLabel;html=1;align=center;verticalAlign=middle;resizable=0;points=[];" parent="Z68hn9O-Tgvw7mRsMY7y-81" connectable="0" vertex="1">
          <mxGeometry x="-0.065" y="-4" relative="1" as="geometry">
            <mxPoint x="13" y="-5" as="offset" />
          </mxGeometry>
        </mxCell>
        <mxCell id="Z68hn9O-Tgvw7mRsMY7y-83" value="" style="endArrow=classic;html=1;rounded=0;fillColor=#008a00;strokeColor=#005700;" parent="1" edge="1">
          <mxGeometry width="50" height="50" relative="1" as="geometry">
            <mxPoint x="920" y="560" as="sourcePoint" />
            <mxPoint x="960" y="515" as="targetPoint" />
          </mxGeometry>
        </mxCell>
        <mxCell id="Z68hn9O-Tgvw7mRsMY7y-84" value="&lt;font style=&quot;font-size: 15px;&quot;&gt;B5&lt;/font&gt;" style="edgeLabel;html=1;align=center;verticalAlign=middle;resizable=0;points=[];" parent="Z68hn9O-Tgvw7mRsMY7y-83" connectable="0" vertex="1">
          <mxGeometry x="-0.065" y="-4" relative="1" as="geometry">
            <mxPoint x="8" y="-4" as="offset" />
          </mxGeometry>
        </mxCell>
        <mxCell id="Z68hn9O-Tgvw7mRsMY7y-85" value="" style="endArrow=classic;html=1;rounded=0;fillColor=#008a00;strokeColor=#005700;" parent="1" edge="1">
          <mxGeometry width="50" height="50" relative="1" as="geometry">
            <mxPoint x="1040" y="560" as="sourcePoint" />
            <mxPoint x="1080" y="522" as="targetPoint" />
          </mxGeometry>
        </mxCell>
        <mxCell id="Z68hn9O-Tgvw7mRsMY7y-86" value="&lt;font style=&quot;font-size: 15px;&quot;&gt;B6&lt;/font&gt;" style="edgeLabel;html=1;align=center;verticalAlign=middle;resizable=0;points=[];" parent="Z68hn9O-Tgvw7mRsMY7y-85" connectable="0" vertex="1">
          <mxGeometry x="-0.065" y="-4" relative="1" as="geometry">
            <mxPoint x="11" y="-7" as="offset" />
          </mxGeometry>
        </mxCell>
        <mxCell id="Z68hn9O-Tgvw7mRsMY7y-87" value="" style="endArrow=classic;html=1;rounded=0;fillColor=#008a00;strokeColor=#005700;" parent="1" edge="1">
          <mxGeometry width="50" height="50" relative="1" as="geometry">
            <mxPoint x="1160" y="560" as="sourcePoint" />
            <mxPoint x="1200" y="522" as="targetPoint" />
          </mxGeometry>
        </mxCell>
        <mxCell id="Z68hn9O-Tgvw7mRsMY7y-88" value="&lt;font style=&quot;font-size: 15px;&quot;&gt;B7&lt;/font&gt;" style="edgeLabel;html=1;align=center;verticalAlign=middle;resizable=0;points=[];" parent="Z68hn9O-Tgvw7mRsMY7y-87" connectable="0" vertex="1">
          <mxGeometry x="-0.065" y="-4" relative="1" as="geometry">
            <mxPoint x="9" y="-7" as="offset" />
          </mxGeometry>
        </mxCell>
        <mxCell id="Z68hn9O-Tgvw7mRsMY7y-89" value="" style="endArrow=classic;html=1;rounded=0;fillColor=#008a00;strokeColor=#005700;" parent="1" edge="1">
          <mxGeometry width="50" height="50" relative="1" as="geometry">
            <mxPoint x="1280" y="560" as="sourcePoint" />
            <mxPoint x="1320" y="522" as="targetPoint" />
          </mxGeometry>
        </mxCell>
        <mxCell id="Z68hn9O-Tgvw7mRsMY7y-90" value="&lt;font style=&quot;font-size: 15px;&quot;&gt;B8&lt;/font&gt;" style="edgeLabel;html=1;align=center;verticalAlign=middle;resizable=0;points=[];" parent="Z68hn9O-Tgvw7mRsMY7y-89" connectable="0" vertex="1">
          <mxGeometry x="-0.065" y="-4" relative="1" as="geometry">
            <mxPoint x="9" as="offset" />
          </mxGeometry>
        </mxCell>
        <mxCell id="Z68hn9O-Tgvw7mRsMY7y-91" value="&lt;span style=&quot;font-size: 22px;&quot;&gt;DIN&lt;/span&gt;" style="text;html=1;align=center;verticalAlign=middle;resizable=0;points=[];autosize=1;strokeColor=none;fillColor=none;" parent="1" vertex="1">
          <mxGeometry x="30" y="375" width="60" height="40" as="geometry" />
        </mxCell>
        <mxCell id="Z68hn9O-Tgvw7mRsMY7y-92" value="&lt;span style=&quot;font-size: 22px;&quot;&gt;DOUT&lt;/span&gt;" style="text;html=1;align=center;verticalAlign=middle;resizable=0;points=[];autosize=1;strokeColor=none;fillColor=none;" parent="1" vertex="1">
          <mxGeometry x="1520" y="610" width="90" height="40" as="geometry" />
        </mxCell>
        <mxCell id="Z68hn9O-Tgvw7mRsMY7y-104" value="" style="endArrow=classic;html=1;rounded=0;entryX=0.5;entryY=0;entryDx=0;entryDy=0;" parent="1" edge="1">
          <mxGeometry width="50" height="50" relative="1" as="geometry">
            <mxPoint x="1096.8600000000001" y="395" as="sourcePoint" />
            <mxPoint x="1096.8600000000001" y="475" as="targetPoint" />
          </mxGeometry>
        </mxCell>
        <mxCell id="Z68hn9O-Tgvw7mRsMY7y-117" value="" style="endArrow=classic;html=1;rounded=0;exitX=0.5;exitY=0;exitDx=0;exitDy=0;" parent="1" edge="1">
          <mxGeometry width="50" height="50" relative="1" as="geometry">
            <mxPoint x="700" y="394.73" as="sourcePoint" />
            <mxPoint x="780" y="395.23" as="targetPoint" />
          </mxGeometry>
        </mxCell>
        <mxCell id="Z68hn9O-Tgvw7mRsMY7y-130" value="" style="rounded=1;whiteSpace=wrap;html=1;direction=south;" parent="1" vertex="1">
          <mxGeometry x="1140" y="355" width="40" height="80" as="geometry" />
        </mxCell>
        <mxCell id="Z68hn9O-Tgvw7mRsMY7y-131" value="en" style="text;html=1;align=center;verticalAlign=middle;whiteSpace=wrap;rounded=0;" parent="1" vertex="1">
          <mxGeometry x="1120" y="400" width="60" height="30" as="geometry" />
        </mxCell>
        <mxCell id="Z68hn9O-Tgvw7mRsMY7y-132" value="rst" style="text;html=1;align=center;verticalAlign=middle;whiteSpace=wrap;rounded=0;" parent="1" vertex="1">
          <mxGeometry x="1140" y="400" width="60" height="30" as="geometry" />
        </mxCell>
        <mxCell id="Z68hn9O-Tgvw7mRsMY7y-133" value="" style="triangle;whiteSpace=wrap;html=1;rotation=-90;" parent="1" vertex="1">
          <mxGeometry x="1155" y="420" width="10" height="20" as="geometry" />
        </mxCell>
        <mxCell id="Z68hn9O-Tgvw7mRsMY7y-138" value="" style="endArrow=classic;html=1;rounded=0;exitX=0.5;exitY=0;exitDx=0;exitDy=0;entryX=0.5;entryY=1;entryDx=0;entryDy=0;" parent="1" target="Z68hn9O-Tgvw7mRsMY7y-130" edge="1">
          <mxGeometry width="50" height="50" relative="1" as="geometry">
            <mxPoint x="1052" y="394.73" as="sourcePoint" />
            <mxPoint x="1140" y="400" as="targetPoint" />
          </mxGeometry>
        </mxCell>
        <mxCell id="Z68hn9O-Tgvw7mRsMY7y-139" value="" style="endArrow=none;html=1;rounded=0;strokeColor=#B20000;fillColor=#e51400;exitX=1;exitY=0.5;exitDx=0;exitDy=0;" parent="1" source="Z68hn9O-Tgvw7mRsMY7y-154" edge="1">
          <mxGeometry width="50" height="50" relative="1" as="geometry">
            <mxPoint x="250" y="450" as="sourcePoint" />
            <mxPoint x="1280" y="450" as="targetPoint" />
          </mxGeometry>
        </mxCell>
        <mxCell id="Z68hn9O-Tgvw7mRsMY7y-140" value="" style="endArrow=classic;html=1;rounded=0;entryX=0;entryY=0.5;entryDx=0;entryDy=0;strokeColor=#B20000;fillColor=#e51400;" parent="1" edge="1">
          <mxGeometry width="50" height="50" relative="1" as="geometry">
            <mxPoint x="1280" y="450" as="sourcePoint" />
            <mxPoint x="1280" y="435" as="targetPoint" />
          </mxGeometry>
        </mxCell>
        <mxCell id="Z68hn9O-Tgvw7mRsMY7y-141" value="" style="endArrow=classic;html=1;rounded=0;entryX=0;entryY=0.5;entryDx=0;entryDy=0;strokeColor=#B20000;fillColor=#e51400;" parent="1" target="Z68hn9O-Tgvw7mRsMY7y-133" edge="1">
          <mxGeometry width="50" height="50" relative="1" as="geometry">
            <mxPoint x="1160" y="450" as="sourcePoint" />
            <mxPoint x="1240" y="450" as="targetPoint" />
          </mxGeometry>
        </mxCell>
        <mxCell id="Z68hn9O-Tgvw7mRsMY7y-147" value="" style="endArrow=classic;html=1;rounded=0;entryX=0;entryY=0.5;entryDx=0;entryDy=0;strokeColor=#B20000;fillColor=#e51400;" parent="1" edge="1">
          <mxGeometry width="50" height="50" relative="1" as="geometry">
            <mxPoint x="1032" y="450" as="sourcePoint" />
            <mxPoint x="1032" y="435" as="targetPoint" />
          </mxGeometry>
        </mxCell>
        <mxCell id="Z68hn9O-Tgvw7mRsMY7y-148" value="" style="endArrow=classic;html=1;rounded=0;entryX=0;entryY=0.5;entryDx=0;entryDy=0;strokeColor=#B20000;fillColor=#e51400;" parent="1" edge="1">
          <mxGeometry width="50" height="50" relative="1" as="geometry">
            <mxPoint x="920" y="450" as="sourcePoint" />
            <mxPoint x="920" y="435" as="targetPoint" />
          </mxGeometry>
        </mxCell>
        <mxCell id="Z68hn9O-Tgvw7mRsMY7y-149" value="" style="endArrow=classic;html=1;rounded=0;entryX=0;entryY=0.5;entryDx=0;entryDy=0;strokeColor=#B20000;fillColor=#e51400;" parent="1" edge="1">
          <mxGeometry width="50" height="50" relative="1" as="geometry">
            <mxPoint x="800" y="450" as="sourcePoint" />
            <mxPoint x="800" y="435" as="targetPoint" />
          </mxGeometry>
        </mxCell>
        <mxCell id="Z68hn9O-Tgvw7mRsMY7y-150" value="" style="endArrow=classic;html=1;rounded=0;entryX=0;entryY=0.5;entryDx=0;entryDy=0;strokeColor=#B20000;fillColor=#e51400;" parent="1" edge="1">
          <mxGeometry width="50" height="50" relative="1" as="geometry">
            <mxPoint x="680" y="450" as="sourcePoint" />
            <mxPoint x="680" y="435" as="targetPoint" />
          </mxGeometry>
        </mxCell>
        <mxCell id="Z68hn9O-Tgvw7mRsMY7y-151" value="" style="endArrow=classic;html=1;rounded=0;entryX=0;entryY=0.5;entryDx=0;entryDy=0;strokeColor=#B20000;fillColor=#e51400;" parent="1" edge="1">
          <mxGeometry width="50" height="50" relative="1" as="geometry">
            <mxPoint x="560" y="450" as="sourcePoint" />
            <mxPoint x="560" y="435" as="targetPoint" />
          </mxGeometry>
        </mxCell>
        <mxCell id="Z68hn9O-Tgvw7mRsMY7y-152" value="" style="endArrow=classic;html=1;rounded=0;entryX=0;entryY=0.5;entryDx=0;entryDy=0;strokeColor=#B20000;fillColor=#e51400;" parent="1" edge="1">
          <mxGeometry width="50" height="50" relative="1" as="geometry">
            <mxPoint x="435" y="450" as="sourcePoint" />
            <mxPoint x="435" y="435" as="targetPoint" />
          </mxGeometry>
        </mxCell>
        <mxCell id="Z68hn9O-Tgvw7mRsMY7y-153" value="&lt;span style=&quot;font-size: 22px;&quot;&gt;CLK&lt;/span&gt;" style="text;html=1;align=center;verticalAlign=middle;resizable=0;points=[];autosize=1;strokeColor=none;fillColor=none;" parent="1" vertex="1">
          <mxGeometry x="20" y="432" width="70" height="40" as="geometry" />
        </mxCell>
        <mxCell id="Z68hn9O-Tgvw7mRsMY7y-154" value="" style="triangle;whiteSpace=wrap;html=1;" parent="1" vertex="1">
          <mxGeometry x="80" y="440" width="10" height="20" as="geometry" />
        </mxCell>
        <mxCell id="Z68hn9O-Tgvw7mRsMY7y-177" value="" style="rounded=1;whiteSpace=wrap;html=1;direction=south;" parent="1" vertex="1">
          <mxGeometry x="1260" y="355" width="40" height="80" as="geometry" />
        </mxCell>
        <mxCell id="Z68hn9O-Tgvw7mRsMY7y-179" value="rst" style="text;html=1;align=center;verticalAlign=middle;whiteSpace=wrap;rounded=0;" parent="1" vertex="1">
          <mxGeometry x="1260" y="400" width="60" height="30" as="geometry" />
        </mxCell>
        <mxCell id="Z68hn9O-Tgvw7mRsMY7y-180" value="" style="triangle;whiteSpace=wrap;html=1;rotation=-90;" parent="1" vertex="1">
          <mxGeometry x="1275" y="420" width="10" height="20" as="geometry" />
        </mxCell>
        <mxCell id="Z68hn9O-Tgvw7mRsMY7y-181" value="" style="rounded=1;whiteSpace=wrap;html=1;direction=south;" parent="1" vertex="1">
          <mxGeometry x="1012" y="355" width="38" height="80" as="geometry" />
        </mxCell>
        <mxCell id="Z68hn9O-Tgvw7mRsMY7y-182" value="en" style="text;html=1;align=center;verticalAlign=middle;whiteSpace=wrap;rounded=0;" parent="1" vertex="1">
          <mxGeometry x="992" y="400" width="60" height="30" as="geometry" />
        </mxCell>
        <mxCell id="Z68hn9O-Tgvw7mRsMY7y-183" value="rst" style="text;html=1;align=center;verticalAlign=middle;whiteSpace=wrap;rounded=0;" parent="1" vertex="1">
          <mxGeometry x="1012" y="400" width="60" height="30" as="geometry" />
        </mxCell>
        <mxCell id="Z68hn9O-Tgvw7mRsMY7y-184" value="" style="triangle;whiteSpace=wrap;html=1;rotation=-90;" parent="1" vertex="1">
          <mxGeometry x="1027" y="420" width="10" height="20" as="geometry" />
        </mxCell>
        <mxCell id="Z68hn9O-Tgvw7mRsMY7y-185" value="" style="rounded=1;whiteSpace=wrap;html=1;direction=south;" parent="1" vertex="1">
          <mxGeometry x="900" y="355" width="40" height="80" as="geometry" />
        </mxCell>
        <mxCell id="Z68hn9O-Tgvw7mRsMY7y-186" value="en" style="text;html=1;align=center;verticalAlign=middle;whiteSpace=wrap;rounded=0;" parent="1" vertex="1">
          <mxGeometry x="880" y="400" width="60" height="30" as="geometry" />
        </mxCell>
        <mxCell id="Z68hn9O-Tgvw7mRsMY7y-187" value="rst" style="text;html=1;align=center;verticalAlign=middle;whiteSpace=wrap;rounded=0;" parent="1" vertex="1">
          <mxGeometry x="900" y="400" width="60" height="30" as="geometry" />
        </mxCell>
        <mxCell id="Z68hn9O-Tgvw7mRsMY7y-188" value="" style="triangle;whiteSpace=wrap;html=1;rotation=-90;" parent="1" vertex="1">
          <mxGeometry x="915" y="420" width="10" height="20" as="geometry" />
        </mxCell>
        <mxCell id="Z68hn9O-Tgvw7mRsMY7y-189" value="" style="rounded=1;whiteSpace=wrap;html=1;direction=south;" parent="1" vertex="1">
          <mxGeometry x="780" y="355" width="40" height="80" as="geometry" />
        </mxCell>
        <mxCell id="Z68hn9O-Tgvw7mRsMY7y-190" value="en" style="text;html=1;align=center;verticalAlign=middle;whiteSpace=wrap;rounded=0;" parent="1" vertex="1">
          <mxGeometry x="760" y="400" width="60" height="30" as="geometry" />
        </mxCell>
        <mxCell id="Z68hn9O-Tgvw7mRsMY7y-191" value="rst" style="text;html=1;align=center;verticalAlign=middle;whiteSpace=wrap;rounded=0;" parent="1" vertex="1">
          <mxGeometry x="780" y="400" width="60" height="30" as="geometry" />
        </mxCell>
        <mxCell id="Z68hn9O-Tgvw7mRsMY7y-192" value="" style="triangle;whiteSpace=wrap;html=1;rotation=-90;" parent="1" vertex="1">
          <mxGeometry x="795" y="420" width="10" height="20" as="geometry" />
        </mxCell>
        <mxCell id="Z68hn9O-Tgvw7mRsMY7y-193" value="" style="rounded=1;whiteSpace=wrap;html=1;direction=south;" parent="1" vertex="1">
          <mxGeometry x="665" y="355" width="40" height="80" as="geometry" />
        </mxCell>
        <mxCell id="Z68hn9O-Tgvw7mRsMY7y-194" value="en" style="text;html=1;align=center;verticalAlign=middle;whiteSpace=wrap;rounded=0;" parent="1" vertex="1">
          <mxGeometry x="645" y="400" width="60" height="30" as="geometry" />
        </mxCell>
        <mxCell id="Z68hn9O-Tgvw7mRsMY7y-195" value="rst" style="text;html=1;align=center;verticalAlign=middle;whiteSpace=wrap;rounded=0;" parent="1" vertex="1">
          <mxGeometry x="665" y="400" width="60" height="30" as="geometry" />
        </mxCell>
        <mxCell id="Z68hn9O-Tgvw7mRsMY7y-196" value="" style="triangle;whiteSpace=wrap;html=1;rotation=-90;" parent="1" vertex="1">
          <mxGeometry x="680" y="420" width="10" height="20" as="geometry" />
        </mxCell>
        <mxCell id="Z68hn9O-Tgvw7mRsMY7y-197" value="" style="rounded=1;whiteSpace=wrap;html=1;direction=south;" parent="1" vertex="1">
          <mxGeometry x="540" y="355" width="40" height="80" as="geometry" />
        </mxCell>
        <mxCell id="Z68hn9O-Tgvw7mRsMY7y-198" value="en" style="text;html=1;align=center;verticalAlign=middle;whiteSpace=wrap;rounded=0;" parent="1" vertex="1">
          <mxGeometry x="520" y="400" width="60" height="30" as="geometry" />
        </mxCell>
        <mxCell id="Z68hn9O-Tgvw7mRsMY7y-199" value="rst" style="text;html=1;align=center;verticalAlign=middle;whiteSpace=wrap;rounded=0;" parent="1" vertex="1">
          <mxGeometry x="540" y="400" width="60" height="30" as="geometry" />
        </mxCell>
        <mxCell id="Z68hn9O-Tgvw7mRsMY7y-200" value="" style="triangle;whiteSpace=wrap;html=1;rotation=-90;" parent="1" vertex="1">
          <mxGeometry x="555" y="420" width="10" height="20" as="geometry" />
        </mxCell>
        <mxCell id="Z68hn9O-Tgvw7mRsMY7y-201" value="" style="rounded=1;whiteSpace=wrap;html=1;direction=south;" parent="1" vertex="1">
          <mxGeometry x="420" y="355" width="40" height="80" as="geometry" />
        </mxCell>
        <mxCell id="Z68hn9O-Tgvw7mRsMY7y-202" value="en" style="text;html=1;align=center;verticalAlign=middle;whiteSpace=wrap;rounded=0;" parent="1" vertex="1">
          <mxGeometry x="400" y="400" width="60" height="30" as="geometry" />
        </mxCell>
        <mxCell id="Z68hn9O-Tgvw7mRsMY7y-203" value="rst" style="text;html=1;align=center;verticalAlign=middle;whiteSpace=wrap;rounded=0;" parent="1" vertex="1">
          <mxGeometry x="420" y="400" width="60" height="30" as="geometry" />
        </mxCell>
        <mxCell id="Z68hn9O-Tgvw7mRsMY7y-204" value="" style="triangle;whiteSpace=wrap;html=1;rotation=-90;" parent="1" vertex="1">
          <mxGeometry x="435" y="420" width="10" height="20" as="geometry" />
        </mxCell>
        <mxCell id="Z68hn9O-Tgvw7mRsMY7y-208" value="" style="endArrow=classic;html=1;rounded=0;entryX=0;entryY=0.5;entryDx=0;entryDy=0;fillColor=#1ba1e2;strokeColor=#006EAF;" parent="1" edge="1">
          <mxGeometry width="50" height="50" relative="1" as="geometry">
            <mxPoint x="990" y="280" as="sourcePoint" />
            <mxPoint x="1012" y="415" as="targetPoint" />
            <Array as="points">
              <mxPoint x="990" y="415" />
            </Array>
          </mxGeometry>
        </mxCell>
        <mxCell id="Z68hn9O-Tgvw7mRsMY7y-209" value="" style="endArrow=classic;html=1;rounded=0;entryX=-0.014;entryY=0.583;entryDx=0;entryDy=0;fillColor=#1ba1e2;strokeColor=#006EAF;entryPerimeter=0;" parent="1" target="Z68hn9O-Tgvw7mRsMY7y-187" edge="1">
          <mxGeometry width="50" height="50" relative="1" as="geometry">
            <mxPoint x="870" y="280" as="sourcePoint" />
            <mxPoint x="892" y="420" as="targetPoint" />
            <Array as="points">
              <mxPoint x="870" y="417" />
            </Array>
          </mxGeometry>
        </mxCell>
        <mxCell id="Z68hn9O-Tgvw7mRsMY7y-210" value="" style="endArrow=classic;html=1;rounded=0;entryX=0;entryY=0.5;entryDx=0;entryDy=0;fillColor=#1ba1e2;strokeColor=#006EAF;" parent="1" edge="1">
          <mxGeometry width="50" height="50" relative="1" as="geometry">
            <mxPoint x="760" y="280" as="sourcePoint" />
            <mxPoint x="780" y="415" as="targetPoint" />
            <Array as="points">
              <mxPoint x="760" y="415" />
            </Array>
          </mxGeometry>
        </mxCell>
        <mxCell id="Z68hn9O-Tgvw7mRsMY7y-211" value="" style="endArrow=classic;html=1;rounded=0;entryX=0;entryY=0.5;entryDx=0;entryDy=0;fillColor=#1ba1e2;strokeColor=#006EAF;" parent="1" edge="1">
          <mxGeometry width="50" height="50" relative="1" as="geometry">
            <mxPoint x="643" y="280" as="sourcePoint" />
            <mxPoint x="665" y="415" as="targetPoint" />
            <Array as="points">
              <mxPoint x="643" y="415" />
            </Array>
          </mxGeometry>
        </mxCell>
        <mxCell id="Z68hn9O-Tgvw7mRsMY7y-212" value="" style="endArrow=classic;html=1;rounded=0;entryX=0;entryY=0.5;entryDx=0;entryDy=0;fillColor=#1ba1e2;strokeColor=#006EAF;" parent="1" edge="1">
          <mxGeometry width="50" height="50" relative="1" as="geometry">
            <mxPoint x="518" y="280" as="sourcePoint" />
            <mxPoint x="540" y="415" as="targetPoint" />
            <Array as="points">
              <mxPoint x="518" y="415" />
            </Array>
          </mxGeometry>
        </mxCell>
        <mxCell id="Z68hn9O-Tgvw7mRsMY7y-213" value="" style="endArrow=classic;html=1;rounded=0;entryX=0;entryY=0.5;entryDx=0;entryDy=0;fillColor=#1ba1e2;strokeColor=#006EAF;" parent="1" edge="1">
          <mxGeometry width="50" height="50" relative="1" as="geometry">
            <mxPoint x="400" y="280" as="sourcePoint" />
            <mxPoint x="420" y="415" as="targetPoint" />
            <Array as="points">
              <mxPoint x="400" y="415" />
            </Array>
          </mxGeometry>
        </mxCell>
        <mxCell id="Z68hn9O-Tgvw7mRsMY7y-223" value="" style="endArrow=classic;html=1;rounded=0;exitX=1;exitY=0.5;exitDx=0;exitDy=0;fillColor=#f0a30a;strokeColor=#BD7000;" parent="1" edge="1">
          <mxGeometry width="50" height="50" relative="1" as="geometry">
            <mxPoint x="1320" y="414.78999999999996" as="sourcePoint" />
            <mxPoint x="1300" y="415" as="targetPoint" />
          </mxGeometry>
        </mxCell>
        <mxCell id="Z68hn9O-Tgvw7mRsMY7y-226" value="" style="endArrow=classic;html=1;rounded=0;exitX=1;exitY=0.5;exitDx=0;exitDy=0;fillColor=#f0a30a;strokeColor=#BD7000;" parent="1" source="Z68hn9O-Tgvw7mRsMY7y-132" edge="1">
          <mxGeometry width="50" height="50" relative="1" as="geometry">
            <mxPoint x="1197" y="415" as="sourcePoint" />
            <mxPoint x="1179.997142857143" y="414.91" as="targetPoint" />
          </mxGeometry>
        </mxCell>
        <mxCell id="Z68hn9O-Tgvw7mRsMY7y-227" value="" style="endArrow=none;html=1;rounded=0;exitX=1;exitY=0.5;exitDx=0;exitDy=0;fillColor=#f0a30a;strokeColor=#BD7000;" parent="1" source="Z68hn9O-Tgvw7mRsMY7y-132" edge="1">
          <mxGeometry width="50" height="50" relative="1" as="geometry">
            <mxPoint x="1167" y="400" as="sourcePoint" />
            <mxPoint x="1200" y="330" as="targetPoint" />
          </mxGeometry>
        </mxCell>
        <mxCell id="Z68hn9O-Tgvw7mRsMY7y-228" value="" style="endArrow=classic;html=1;rounded=0;entryX=0.188;entryY=-0.009;entryDx=0;entryDy=0;entryPerimeter=0;fillColor=#f0a30a;strokeColor=#BD7000;" parent="1" edge="1">
          <mxGeometry width="50" height="50" relative="1" as="geometry">
            <mxPoint x="1080" y="330" as="sourcePoint" />
            <mxPoint x="1052" y="414.92999999999995" as="targetPoint" />
            <Array as="points">
              <mxPoint x="1080" y="415" />
            </Array>
          </mxGeometry>
        </mxCell>
        <mxCell id="Z68hn9O-Tgvw7mRsMY7y-231" value="" style="endArrow=classic;html=1;rounded=0;entryX=0.188;entryY=-0.009;entryDx=0;entryDy=0;entryPerimeter=0;fillColor=#f0a30a;strokeColor=#BD7000;" parent="1" edge="1">
          <mxGeometry width="50" height="50" relative="1" as="geometry">
            <mxPoint x="970" y="330" as="sourcePoint" />
            <mxPoint x="940" y="414.92999999999995" as="targetPoint" />
            <Array as="points">
              <mxPoint x="970" y="415" />
            </Array>
          </mxGeometry>
        </mxCell>
        <mxCell id="Z68hn9O-Tgvw7mRsMY7y-232" value="" style="endArrow=classic;html=1;rounded=0;entryX=0.188;entryY=-0.009;entryDx=0;entryDy=0;entryPerimeter=0;fillColor=#f0a30a;strokeColor=#BD7000;" parent="1" edge="1">
          <mxGeometry width="50" height="50" relative="1" as="geometry">
            <mxPoint x="850" y="330" as="sourcePoint" />
            <mxPoint x="820" y="414.92999999999995" as="targetPoint" />
            <Array as="points">
              <mxPoint x="850" y="415" />
            </Array>
          </mxGeometry>
        </mxCell>
        <mxCell id="Z68hn9O-Tgvw7mRsMY7y-233" value="" style="endArrow=classic;html=1;rounded=0;entryX=0.188;entryY=-0.009;entryDx=0;entryDy=0;entryPerimeter=0;fillColor=#f0a30a;strokeColor=#BD7000;" parent="1" edge="1">
          <mxGeometry width="50" height="50" relative="1" as="geometry">
            <mxPoint x="720" y="330" as="sourcePoint" />
            <mxPoint x="705" y="414.92999999999995" as="targetPoint" />
            <Array as="points">
              <mxPoint x="720" y="415" />
            </Array>
          </mxGeometry>
        </mxCell>
        <mxCell id="Z68hn9O-Tgvw7mRsMY7y-234" value="" style="endArrow=classic;html=1;rounded=0;entryX=0.188;entryY=-0.009;entryDx=0;entryDy=0;entryPerimeter=0;fillColor=#f0a30a;strokeColor=#BD7000;" parent="1" edge="1">
          <mxGeometry width="50" height="50" relative="1" as="geometry">
            <mxPoint x="610" y="330" as="sourcePoint" />
            <mxPoint x="580" y="414.92999999999995" as="targetPoint" />
            <Array as="points">
              <mxPoint x="610" y="415" />
            </Array>
          </mxGeometry>
        </mxCell>
        <mxCell id="Z68hn9O-Tgvw7mRsMY7y-235" value="" style="endArrow=classic;html=1;rounded=0;entryX=0.188;entryY=-0.009;entryDx=0;entryDy=0;entryPerimeter=0;fillColor=#f0a30a;strokeColor=#BD7000;" parent="1" edge="1">
          <mxGeometry width="50" height="50" relative="1" as="geometry">
            <mxPoint x="490" y="330" as="sourcePoint" />
            <mxPoint x="460" y="414.92999999999995" as="targetPoint" />
            <Array as="points">
              <mxPoint x="490" y="415" />
            </Array>
          </mxGeometry>
        </mxCell>
        <mxCell id="Z68hn9O-Tgvw7mRsMY7y-242" value="" style="triangle;whiteSpace=wrap;html=1;" parent="1" vertex="1">
          <mxGeometry x="80" y="385" width="10" height="20" as="geometry" />
        </mxCell>
        <mxCell id="Z68hn9O-Tgvw7mRsMY7y-246" value="" style="endArrow=none;html=1;rounded=0;exitX=1;exitY=0.5;exitDx=0;exitDy=0;" parent="1" source="Z68hn9O-Tgvw7mRsMY7y-65" edge="1">
          <mxGeometry width="50" height="50" relative="1" as="geometry">
            <mxPoint x="1370" y="470" as="sourcePoint" />
            <mxPoint x="1400" y="630" as="targetPoint" />
          </mxGeometry>
        </mxCell>
        <mxCell id="Z68hn9O-Tgvw7mRsMY7y-247" value="" style="triangle;whiteSpace=wrap;html=1;rotation=-180;" parent="1" vertex="1">
          <mxGeometry x="1516" y="620" width="10" height="20" as="geometry" />
        </mxCell>
        <mxCell id="Z68hn9O-Tgvw7mRsMY7y-248" value="" style="triangle;whiteSpace=wrap;html=1;rotation=-180;" parent="1" vertex="1">
          <mxGeometry x="1480" y="195" width="10" height="20" as="geometry" />
        </mxCell>
        <mxCell id="CbF84web4NkX9h8tGIaV-1" value="" style="rounded=1;whiteSpace=wrap;html=1;direction=south;" parent="1" vertex="1">
          <mxGeometry x="130" y="355" width="40" height="80" as="geometry" />
        </mxCell>
        <mxCell id="CbF84web4NkX9h8tGIaV-2" value="rst" style="text;html=1;align=center;verticalAlign=middle;whiteSpace=wrap;rounded=0;" parent="1" vertex="1">
          <mxGeometry x="130" y="400" width="60" height="30" as="geometry" />
        </mxCell>
        <mxCell id="CbF84web4NkX9h8tGIaV-3" value="" style="triangle;whiteSpace=wrap;html=1;rotation=-90;" parent="1" vertex="1">
          <mxGeometry x="145" y="420" width="10" height="20" as="geometry" />
        </mxCell>
        <mxCell id="CbF84web4NkX9h8tGIaV-4" value="" style="endArrow=classic;html=1;rounded=0;entryX=0.5;entryY=1;entryDx=0;entryDy=0;exitX=1;exitY=0.5;exitDx=0;exitDy=0;" parent="1" source="Z68hn9O-Tgvw7mRsMY7y-242" target="CbF84web4NkX9h8tGIaV-1" edge="1">
          <mxGeometry width="50" height="50" relative="1" as="geometry">
            <mxPoint x="180" y="400" as="sourcePoint" />
            <mxPoint x="430" y="400" as="targetPoint" />
          </mxGeometry>
        </mxCell>
        <mxCell id="CbF84web4NkX9h8tGIaV-5" value="" style="endArrow=classic;html=1;rounded=0;entryX=0.188;entryY=-0.009;entryDx=0;entryDy=0;entryPerimeter=0;fillColor=#f0a30a;strokeColor=#BD7000;" parent="1" edge="1">
          <mxGeometry width="50" height="50" relative="1" as="geometry">
            <mxPoint x="200" y="330" as="sourcePoint" />
            <mxPoint x="170" y="412.42999999999995" as="targetPoint" />
            <Array as="points">
              <mxPoint x="200" y="412.5" />
            </Array>
          </mxGeometry>
        </mxCell>
        <mxCell id="CbF84web4NkX9h8tGIaV-6" value="&lt;b&gt;reg_din&lt;/b&gt;" style="text;html=1;align=center;verticalAlign=middle;whiteSpace=wrap;rounded=0;" parent="1" vertex="1">
          <mxGeometry x="120" y="350" width="60" height="30" as="geometry" />
        </mxCell>
        <mxCell id="CbF84web4NkX9h8tGIaV-7" value="&lt;b&gt;reg_B1&lt;/b&gt;" style="text;html=1;align=center;verticalAlign=middle;whiteSpace=wrap;rounded=0;" parent="1" vertex="1">
          <mxGeometry x="410" y="350" width="60" height="30" as="geometry" />
        </mxCell>
        <mxCell id="CbF84web4NkX9h8tGIaV-8" value="&lt;b&gt;reg_B2&lt;/b&gt;" style="text;html=1;align=center;verticalAlign=middle;whiteSpace=wrap;rounded=0;" parent="1" vertex="1">
          <mxGeometry x="530" y="350" width="60" height="30" as="geometry" />
        </mxCell>
        <mxCell id="CbF84web4NkX9h8tGIaV-9" value="&lt;b&gt;reg_B3&lt;/b&gt;" style="text;html=1;align=center;verticalAlign=middle;whiteSpace=wrap;rounded=0;" parent="1" vertex="1">
          <mxGeometry x="655" y="350" width="60" height="30" as="geometry" />
        </mxCell>
        <mxCell id="CbF84web4NkX9h8tGIaV-10" value="&lt;b&gt;reg_B4&lt;/b&gt;" style="text;html=1;align=center;verticalAlign=middle;whiteSpace=wrap;rounded=0;" parent="1" vertex="1">
          <mxGeometry x="770" y="350" width="60" height="30" as="geometry" />
        </mxCell>
        <mxCell id="CbF84web4NkX9h8tGIaV-11" value="&lt;b&gt;reg_B5&lt;/b&gt;" style="text;html=1;align=center;verticalAlign=middle;whiteSpace=wrap;rounded=0;" parent="1" vertex="1">
          <mxGeometry x="890" y="350" width="60" height="30" as="geometry" />
        </mxCell>
        <mxCell id="CbF84web4NkX9h8tGIaV-12" value="&lt;b&gt;reg_B6&lt;/b&gt;" style="text;html=1;align=center;verticalAlign=middle;whiteSpace=wrap;rounded=0;" parent="1" vertex="1">
          <mxGeometry x="1000" y="350" width="60" height="30" as="geometry" />
        </mxCell>
        <mxCell id="CbF84web4NkX9h8tGIaV-13" value="&lt;b&gt;reg_B7&lt;/b&gt;" style="text;html=1;align=center;verticalAlign=middle;whiteSpace=wrap;rounded=0;" parent="1" vertex="1">
          <mxGeometry x="1130" y="350" width="60" height="30" as="geometry" />
        </mxCell>
        <mxCell id="CbF84web4NkX9h8tGIaV-14" value="&lt;b&gt;reg_B8&lt;/b&gt;" style="text;html=1;align=center;verticalAlign=middle;whiteSpace=wrap;rounded=0;" parent="1" vertex="1">
          <mxGeometry x="1250" y="350" width="60" height="30" as="geometry" />
        </mxCell>
        <mxCell id="CbF84web4NkX9h8tGIaV-15" value="&lt;b&gt;M0&lt;/b&gt;" style="text;html=1;align=center;verticalAlign=middle;whiteSpace=wrap;rounded=0;" parent="1" vertex="1">
          <mxGeometry x="345" y="468" width="60" height="30" as="geometry" />
        </mxCell>
        <mxCell id="CbF84web4NkX9h8tGIaV-17" value="" style="rounded=1;whiteSpace=wrap;html=1;direction=south;" parent="1" vertex="1">
          <mxGeometry x="1400" y="590" width="40" height="80" as="geometry" />
        </mxCell>
        <mxCell id="CbF84web4NkX9h8tGIaV-18" value="rst" style="text;html=1;align=center;verticalAlign=middle;whiteSpace=wrap;rounded=0;" parent="1" vertex="1">
          <mxGeometry x="1400" y="635" width="60" height="30" as="geometry" />
        </mxCell>
        <mxCell id="CbF84web4NkX9h8tGIaV-19" value="" style="triangle;whiteSpace=wrap;html=1;rotation=-90;" parent="1" vertex="1">
          <mxGeometry x="1415" y="655" width="10" height="20" as="geometry" />
        </mxCell>
        <mxCell id="CbF84web4NkX9h8tGIaV-20" value="&lt;b&gt;reg_Dout&lt;/b&gt;" style="text;html=1;align=center;verticalAlign=middle;whiteSpace=wrap;rounded=0;" parent="1" vertex="1">
          <mxGeometry x="1405" y="585" width="30" height="30" as="geometry" />
        </mxCell>
        <mxCell id="CbF84web4NkX9h8tGIaV-22" value="&lt;span style=&quot;font-size: 22px;&quot;&gt;VOUT&lt;/span&gt;" style="text;html=1;align=center;verticalAlign=middle;resizable=0;points=[];autosize=1;strokeColor=none;fillColor=none;" parent="1" vertex="1">
          <mxGeometry x="1480" y="185" width="80" height="40" as="geometry" />
        </mxCell>
        <mxCell id="DhSqUFugcgv-5C6PiQ1s-4" value="" style="triangle;whiteSpace=wrap;html=1;" parent="1" vertex="1">
          <mxGeometry x="80" y="320" width="10" height="20" as="geometry" />
        </mxCell>
        <mxCell id="DhSqUFugcgv-5C6PiQ1s-5" value="" style="endArrow=none;html=1;rounded=0;exitX=1;exitY=0.5;exitDx=0;exitDy=0;fillColor=#f0a30a;strokeColor=#BD7000;" parent="1" source="DhSqUFugcgv-5C6PiQ1s-4" edge="1">
          <mxGeometry width="50" height="50" relative="1" as="geometry">
            <mxPoint x="290" y="270" as="sourcePoint" />
            <mxPoint x="1200" y="330" as="targetPoint" />
          </mxGeometry>
        </mxCell>
        <mxCell id="DhSqUFugcgv-5C6PiQ1s-10" value="" style="endArrow=none;html=1;rounded=0;exitX=0.695;exitY=1.106;exitDx=0;exitDy=0;exitPerimeter=0;" parent="1" edge="1">
          <mxGeometry width="50" height="50" relative="1" as="geometry">
            <mxPoint x="101.69999999999999" y="288.18" as="sourcePoint" />
            <mxPoint x="120" y="270" as="targetPoint" />
          </mxGeometry>
        </mxCell>
        <mxCell id="DhSqUFugcgv-5C6PiQ1s-11" value="1 bit" style="text;html=1;align=center;verticalAlign=middle;whiteSpace=wrap;rounded=0;" parent="1" vertex="1">
          <mxGeometry x="80" y="280" width="60" height="30" as="geometry" />
        </mxCell>
        <mxCell id="DhSqUFugcgv-5C6PiQ1s-12" value="" style="endArrow=none;html=1;rounded=0;exitX=0.695;exitY=1.106;exitDx=0;exitDy=0;exitPerimeter=0;" parent="1" edge="1">
          <mxGeometry width="50" height="50" relative="1" as="geometry">
            <mxPoint x="100.85" y="338.18" as="sourcePoint" />
            <mxPoint x="119.15" y="320" as="targetPoint" />
          </mxGeometry>
        </mxCell>
        <mxCell id="DhSqUFugcgv-5C6PiQ1s-13" value="1 bit" style="text;html=1;align=center;verticalAlign=middle;whiteSpace=wrap;rounded=0;" parent="1" vertex="1">
          <mxGeometry x="80" y="330" width="60" height="30" as="geometry" />
        </mxCell>
        <mxCell id="DhSqUFugcgv-5C6PiQ1s-19" style="edgeStyle=orthogonalEdgeStyle;rounded=0;orthogonalLoop=1;jettySize=auto;html=1;exitX=0.5;exitY=0;exitDx=0;exitDy=0;entryX=0.016;entryY=0.661;entryDx=0;entryDy=0;entryPerimeter=0;strokeColor=#006EAF;" parent="1" edge="1">
          <mxGeometry relative="1" as="geometry">
            <mxPoint x="1260" y="414.83000000000004" as="targetPoint" />
            <mxPoint x="169.04" y="280" as="sourcePoint" />
            <Array as="points">
              <mxPoint x="1239.04" y="280" />
              <mxPoint x="1239.04" y="415" />
            </Array>
          </mxGeometry>
        </mxCell>
        <mxCell id="DhSqUFugcgv-5C6PiQ1s-14" value="" style="rounded=1;whiteSpace=wrap;html=1;direction=south;" parent="1" vertex="1">
          <mxGeometry x="130" y="245" width="40" height="80" as="geometry" />
        </mxCell>
        <mxCell id="DhSqUFugcgv-5C6PiQ1s-15" value="rst" style="text;html=1;align=center;verticalAlign=middle;whiteSpace=wrap;rounded=0;" parent="1" vertex="1">
          <mxGeometry x="130" y="290" width="60" height="30" as="geometry" />
        </mxCell>
        <mxCell id="DhSqUFugcgv-5C6PiQ1s-16" value="" style="triangle;whiteSpace=wrap;html=1;rotation=-90;" parent="1" vertex="1">
          <mxGeometry x="145" y="310" width="10" height="20" as="geometry" />
        </mxCell>
        <mxCell id="DhSqUFugcgv-5C6PiQ1s-17" value="&lt;b&gt;FF_Vin&lt;/b&gt;" style="text;html=1;align=center;verticalAlign=middle;whiteSpace=wrap;rounded=0;" parent="1" vertex="1">
          <mxGeometry x="120" y="240" width="60" height="30" as="geometry" />
        </mxCell>
        <mxCell id="DhSqUFugcgv-5C6PiQ1s-20" value="en" style="text;html=1;align=center;verticalAlign=middle;whiteSpace=wrap;rounded=0;" parent="1" vertex="1">
          <mxGeometry x="1240" y="400" width="60" height="30" as="geometry" />
        </mxCell>
        <mxCell id="DhSqUFugcgv-5C6PiQ1s-21" value="" style="endArrow=classic;html=1;rounded=0;entryX=0;entryY=0.5;entryDx=0;entryDy=0;fillColor=#1ba1e2;strokeColor=#006EAF;" parent="1" edge="1">
          <mxGeometry width="50" height="50" relative="1" as="geometry">
            <mxPoint x="1118" y="280" as="sourcePoint" />
            <mxPoint x="1140" y="415" as="targetPoint" />
            <Array as="points">
              <mxPoint x="1118" y="415" />
            </Array>
          </mxGeometry>
        </mxCell>
        <mxCell id="DhSqUFugcgv-5C6PiQ1s-26" value="" style="edgeStyle=orthogonalEdgeStyle;rounded=0;orthogonalLoop=1;jettySize=auto;html=1;entryX=0.437;entryY=1;entryDx=0;entryDy=0;entryPerimeter=0;fillColor=#1ba1e2;strokeColor=#006EAF;" parent="1" source="DhSqUFugcgv-5C6PiQ1s-25" target="DhSqUFugcgv-5C6PiQ1s-14" edge="1">
          <mxGeometry relative="1" as="geometry" />
        </mxCell>
        <mxCell id="DhSqUFugcgv-5C6PiQ1s-25" value="" style="triangle;whiteSpace=wrap;html=1;" parent="1" vertex="1">
          <mxGeometry x="80" y="270" width="10" height="20" as="geometry" />
        </mxCell>
        <mxCell id="DhSqUFugcgv-5C6PiQ1s-28" value="&lt;span style=&quot;font-size: 22px;&quot;&gt;RST&lt;/span&gt;" style="text;html=1;align=center;verticalAlign=middle;resizable=0;points=[];autosize=1;strokeColor=none;fillColor=none;" parent="1" vertex="1">
          <mxGeometry x="20" y="310" width="70" height="40" as="geometry" />
        </mxCell>
        <mxCell id="DhSqUFugcgv-5C6PiQ1s-29" value="&lt;span style=&quot;font-size: 22px;&quot;&gt;VIN&lt;/span&gt;" style="text;html=1;align=center;verticalAlign=middle;resizable=0;points=[];autosize=1;strokeColor=none;fillColor=none;" parent="1" vertex="1">
          <mxGeometry x="25" y="260" width="60" height="40" as="geometry" />
        </mxCell>
        <mxCell id="DhSqUFugcgv-5C6PiQ1s-90" value="" style="ellipse;whiteSpace=wrap;html=1;aspect=fixed;" parent="1" vertex="1">
          <mxGeometry x="270" y="300" as="geometry" />
        </mxCell>
        <mxCell id="DhSqUFugcgv-5C6PiQ1s-108" value="&lt;b&gt;M1&lt;/b&gt;&lt;span style=&quot;color: rgba(0, 0, 0, 0); font-family: monospace; font-size: 0px; text-align: start; text-wrap-mode: nowrap;&quot;&gt;%3CmxGraphModel%3E%3Croot%3E%3CmxCell%20id%3D%220%22%2F%3E%3CmxCell%20id%3D%221%22%20parent%3D%220%22%2F%3E%3CmxCell%20id%3D%222%22%20value%3D%22%26lt%3Bb%26gt%3BM0%26lt%3B%2Fb%26gt%3B%22%20style%3D%22text%3Bhtml%3D1%3Balign%3Dcenter%3BverticalAlign%3Dmiddle%3BwhiteSpace%3Dwrap%3Brounded%3D0%3B%22%20vertex%3D%221%22%20parent%3D%221%22%3E%3CmxGeometry%20x%3D%22370%22%20y%3D%22460%22%20width%3D%2260%22%20height%3D%2230%22%20as%3D%22geometry%22%2F%3E%3C%2FmxCell%3E%3C%2Froot%3E%3C%2FmxGraphModel%3E&lt;/span&gt;" style="text;html=1;align=center;verticalAlign=middle;whiteSpace=wrap;rounded=0;" parent="1" vertex="1">
          <mxGeometry x="465" y="468" width="60" height="30" as="geometry" />
        </mxCell>
        <mxCell id="DhSqUFugcgv-5C6PiQ1s-110" value="&lt;b&gt;M2&lt;/b&gt;" style="text;html=1;align=center;verticalAlign=middle;whiteSpace=wrap;rounded=0;" parent="1" vertex="1">
          <mxGeometry x="585" y="468" width="60" height="30" as="geometry" />
        </mxCell>
        <mxCell id="DhSqUFugcgv-5C6PiQ1s-111" value="&lt;b&gt;M3&lt;/b&gt;&lt;span style=&quot;color: rgba(0, 0, 0, 0); font-family: monospace; font-size: 0px; text-align: start; text-wrap-mode: nowrap;&quot;&gt;%3CmxGraphModel%3E%3Croot%3E%3CmxCell%20id%3D%220%22%2F%3E%3CmxCell%20id%3D%221%22%20parent%3D%220%22%2F%3E%3CmxCell%20id%3D%222%22%20value%3D%22%26lt%3Bb%26gt%3BM0%26lt%3B%2Fb%26gt%3B%22%20style%3D%22text%3Bhtml%3D1%3Balign%3Dcenter%3BverticalAlign%3Dmiddle%3BwhiteSpace%3Dwrap%3Brounded%3D0%3B%22%20vertex%3D%221%22%20parent%3D%221%22%3E%3CmxGeometry%20x%3D%22370%22%20y%3D%22460%22%20width%3D%2260%22%20height%3D%2230%22%20as%3D%22geometry%22%2F%3E%3C%2FmxCell%3E%3C%2Froot%3E%3C%2FmxGraphModel%3E&lt;/span&gt;" style="text;html=1;align=center;verticalAlign=middle;whiteSpace=wrap;rounded=0;" parent="1" vertex="1">
          <mxGeometry x="705" y="468" width="60" height="30" as="geometry" />
        </mxCell>
        <mxCell id="DhSqUFugcgv-5C6PiQ1s-112" value="&lt;b&gt;M4&lt;/b&gt;&lt;span style=&quot;color: rgba(0, 0, 0, 0); font-family: monospace; font-size: 0px; text-align: start; text-wrap-mode: nowrap;&quot;&gt;%3CmxGraphModel%3E%3Croot%3E%3CmxCell%20id%3D%220%22%2F%3E%3CmxCell%20id%3D%221%22%20parent%3D%220%22%2F%3E%3CmxCell%20id%3D%222%22%20value%3D%22%26lt%3Bb%26gt%3BM0%26lt%3B%2Fb%26gt%3B%22%20style%3D%22text%3Bhtml%3D1%3Balign%3Dcenter%3BverticalAlign%3Dmiddle%3BwhiteSpace%3Dwrap%3Brounded%3D0%3B%22%20vertex%3D%221%22%20parent%3D%221%22%3E%3CmxGeometry%20x%3D%22370%22%20y%3D%22460%22%20width%3D%2260%22%20height%3D%2230%22%20as%3D%22geometry%22%2F%3E%3C%2FmxCell%3E%3C%2Froot%3E%3C%2FmxGraphModel%3E&lt;/span&gt;" style="text;html=1;align=center;verticalAlign=middle;whiteSpace=wrap;rounded=0;" parent="1" vertex="1">
          <mxGeometry x="825" y="468" width="60" height="30" as="geometry" />
        </mxCell>
        <mxCell id="DhSqUFugcgv-5C6PiQ1s-113" value="&lt;b&gt;M5&lt;/b&gt;" style="text;html=1;align=center;verticalAlign=middle;whiteSpace=wrap;rounded=0;" parent="1" vertex="1">
          <mxGeometry x="945" y="465" width="60" height="30" as="geometry" />
        </mxCell>
        <mxCell id="DhSqUFugcgv-5C6PiQ1s-116" value="&lt;b&gt;M6&lt;/b&gt;" style="text;html=1;align=center;verticalAlign=middle;whiteSpace=wrap;rounded=0;" parent="1" vertex="1">
          <mxGeometry x="1067" y="468" width="60" height="30" as="geometry" />
        </mxCell>
        <mxCell id="DhSqUFugcgv-5C6PiQ1s-117" value="&lt;b&gt;M6&lt;/b&gt;&lt;span style=&quot;color: rgba(0, 0, 0, 0); font-family: monospace; font-size: 0px; text-align: start; text-wrap-mode: nowrap;&quot;&gt;%3CmxGraphModel%3E%3Croot%3E%3CmxCell%20id%3D%220%22%2F%3E%3CmxCell%20id%3D%221%22%20parent%3D%220%22%2F%3E%3CmxCell%20id%3D%222%22%20value%3D%22%26lt%3Bb%26gt%3BM5%26lt%3B%2Fb%26gt%3B%22%20style%3D%22text%3Bhtml%3D1%3Balign%3Dcenter%3BverticalAlign%3Dmiddle%3BwhiteSpace%3Dwrap%3Brounded%3D0%3B%22%20vertex%3D%221%22%20parent%3D%221%22%3E%3CmxGeometry%20x%3D%22945%22%20y%3D%22465%22%20width%3D%2260%22%20height%3D%2230%22%20as%3D%22geometry%22%2F%3E%3C%2FmxCell%3E%3C%2Froot%3E%3C%2FmxGraphModel%3E&lt;/span&gt;" style="text;html=1;align=center;verticalAlign=middle;whiteSpace=wrap;rounded=0;" parent="1" vertex="1">
          <mxGeometry x="1185" y="468" width="60" height="30" as="geometry" />
        </mxCell>
        <mxCell id="DhSqUFugcgv-5C6PiQ1s-118" value="&lt;b&gt;M7&lt;/b&gt;&lt;span style=&quot;color: rgba(0, 0, 0, 0); font-family: monospace; font-size: 0px; text-align: start; text-wrap-mode: nowrap;&quot;&gt;%3CmxGraphModel%3E%3Croot%3E%3CmxCell%20id%3D%220%22%2F%3E%3CmxCell%20id%3D%221%22%20parent%3D%220%22%2F%3E%3CmxCell%20id%3D%222%22%20value%3D%22%26lt%3Bb%26gt%3BM5%26lt%3B%2Fb%26gt%3B%22%20style%3D%22text%3Bhtml%3D1%3Balign%3Dcenter%3BverticalAlign%3Dmiddle%3BwhiteSpace%3Dwrap%3Brounded%3D0%3B%22%20vertex%3D%221%22%20parent%3D%221%22%3E%3CmxGeometry%20x%3D%22945%22%20y%3D%22465%22%20width%3D%2260%22%20height%3D%2230%22%20as%3D%22geometry%22%2F%3E%3C%2FmxCell%3E%3C%2Froot%3E%3C%2FmxGraphModel%3E&lt;/span&gt;" style="text;html=1;align=center;verticalAlign=middle;whiteSpace=wrap;rounded=0;" parent="1" vertex="1">
          <mxGeometry x="1305" y="465" width="60" height="30" as="geometry" />
        </mxCell>
        <mxCell id="DhSqUFugcgv-5C6PiQ1s-119" value="&lt;b&gt;A0&lt;/b&gt;" style="text;html=1;align=center;verticalAlign=middle;whiteSpace=wrap;rounded=0;" parent="1" vertex="1">
          <mxGeometry x="465" y="600" width="60" height="30" as="geometry" />
        </mxCell>
        <mxCell id="DhSqUFugcgv-5C6PiQ1s-120" value="&lt;b&gt;A1&lt;/b&gt;" style="text;html=1;align=center;verticalAlign=middle;whiteSpace=wrap;rounded=0;" parent="1" vertex="1">
          <mxGeometry x="585" y="600" width="60" height="30" as="geometry" />
        </mxCell>
        <mxCell id="DhSqUFugcgv-5C6PiQ1s-121" value="&lt;b&gt;A2&lt;/b&gt;" style="text;html=1;align=center;verticalAlign=middle;whiteSpace=wrap;rounded=0;" parent="1" vertex="1">
          <mxGeometry x="705" y="600" width="60" height="30" as="geometry" />
        </mxCell>
        <mxCell id="DhSqUFugcgv-5C6PiQ1s-122" value="&lt;b&gt;A3&lt;/b&gt;" style="text;html=1;align=center;verticalAlign=middle;whiteSpace=wrap;rounded=0;" parent="1" vertex="1">
          <mxGeometry x="825" y="600" width="60" height="30" as="geometry" />
        </mxCell>
        <mxCell id="DhSqUFugcgv-5C6PiQ1s-123" value="&lt;b&gt;A4&lt;/b&gt;&lt;span style=&quot;color: rgba(0, 0, 0, 0); font-family: monospace; font-size: 0px; text-align: start; text-wrap-mode: nowrap;&quot;&gt;%3CmxGraphModel%3E%3Croot%3E%3CmxCell%20id%3D%220%22%2F%3E%3CmxCell%20id%3D%221%22%20parent%3D%220%22%2F%3E%3CmxCell%20id%3D%222%22%20value%3D%22%26lt%3Bb%26gt%3BA1%26lt%3B%2Fb%26gt%3B%22%20style%3D%22text%3Bhtml%3D1%3Balign%3Dcenter%3BverticalAlign%3Dmiddle%3BwhiteSpace%3Dwrap%3Brounded%3D0%3B%22%20vertex%3D%221%22%20parent%3D%221%22%3E%3CmxGeometry%20x%3D%22585%22%20y%3D%22600%22%20width%3D%2260%22%20height%3D%2230%22%20as%3D%22geometry%22%2F%3E%3C%2FmxCell%3E%3C%2Froot%3E%3C%2FmxGraphModel%3E&lt;/span&gt;" style="text;html=1;align=center;verticalAlign=middle;whiteSpace=wrap;rounded=0;" parent="1" vertex="1">
          <mxGeometry x="945" y="600" width="60" height="30" as="geometry" />
        </mxCell>
        <mxCell id="DhSqUFugcgv-5C6PiQ1s-124" value="&lt;b&gt;A5&lt;/b&gt;" style="text;html=1;align=center;verticalAlign=middle;whiteSpace=wrap;rounded=0;" parent="1" vertex="1">
          <mxGeometry x="1067" y="600" width="60" height="30" as="geometry" />
        </mxCell>
        <mxCell id="DhSqUFugcgv-5C6PiQ1s-125" value="&lt;b&gt;A6&lt;/b&gt;" style="text;html=1;align=center;verticalAlign=middle;whiteSpace=wrap;rounded=0;" parent="1" vertex="1">
          <mxGeometry x="1185" y="600" width="60" height="30" as="geometry" />
        </mxCell>
        <mxCell id="DhSqUFugcgv-5C6PiQ1s-126" value="&lt;b&gt;A7&lt;/b&gt;" style="text;html=1;align=center;verticalAlign=middle;whiteSpace=wrap;rounded=0;" parent="1" vertex="1">
          <mxGeometry x="1305" y="600" width="60" height="30" as="geometry" />
        </mxCell>
        <mxCell id="DhSqUFugcgv-5C6PiQ1s-127" value="" style="rounded=1;whiteSpace=wrap;html=1;direction=south;" parent="1" vertex="1">
          <mxGeometry x="1390" y="160" width="40" height="80" as="geometry" />
        </mxCell>
        <mxCell id="DhSqUFugcgv-5C6PiQ1s-128" value="rst" style="text;html=1;align=center;verticalAlign=middle;whiteSpace=wrap;rounded=0;" parent="1" vertex="1">
          <mxGeometry x="1390" y="205" width="60" height="30" as="geometry" />
        </mxCell>
        <mxCell id="DhSqUFugcgv-5C6PiQ1s-131" value="&lt;b&gt;FF_vout&lt;/b&gt;" style="text;html=1;align=center;verticalAlign=middle;whiteSpace=wrap;rounded=0;" parent="1" vertex="1">
          <mxGeometry x="1380" y="160" width="60" height="30" as="geometry" />
        </mxCell>
        <mxCell id="DhSqUFugcgv-5C6PiQ1s-139" value="" style="endArrow=classic;html=1;rounded=0;fillColor=#f0a30a;strokeColor=#BD7000;" parent="1" edge="1">
          <mxGeometry width="50" height="50" relative="1" as="geometry">
            <mxPoint x="1470" y="330" as="sourcePoint" />
            <mxPoint x="1430" y="225" as="targetPoint" />
            <Array as="points">
              <mxPoint x="1470" y="225.5" />
            </Array>
          </mxGeometry>
        </mxCell>
        <mxCell id="DhSqUFugcgv-5C6PiQ1s-140" value="" style="endArrow=none;html=1;rounded=0;strokeColor=#BD7000;" parent="1" edge="1">
          <mxGeometry width="50" height="50" relative="1" as="geometry">
            <mxPoint x="1200" y="330" as="sourcePoint" />
            <mxPoint x="1470" y="330" as="targetPoint" />
          </mxGeometry>
        </mxCell>
        <mxCell id="DhSqUFugcgv-5C6PiQ1s-142" value="" style="endArrow=classic;html=1;rounded=0;fillColor=#f0a30a;strokeColor=#BD7000;" parent="1" edge="1">
          <mxGeometry width="50" height="50" relative="1" as="geometry">
            <mxPoint x="1460" y="330" as="sourcePoint" />
            <mxPoint x="1440" y="650" as="targetPoint" />
            <Array as="points">
              <mxPoint x="1460" y="370" />
              <mxPoint x="1460" y="650" />
            </Array>
          </mxGeometry>
        </mxCell>
        <mxCell id="DhSqUFugcgv-5C6PiQ1s-145" value="" style="endArrow=classic;html=1;rounded=0;entryX=0;entryY=0.5;entryDx=0;entryDy=0;strokeColor=#B20000;" parent="1" target="CbF84web4NkX9h8tGIaV-19" edge="1">
          <mxGeometry width="50" height="50" relative="1" as="geometry">
            <mxPoint x="280" y="450" as="sourcePoint" />
            <mxPoint x="790" y="620" as="targetPoint" />
            <Array as="points">
              <mxPoint x="280" y="700" />
              <mxPoint x="1420" y="700" />
            </Array>
          </mxGeometry>
        </mxCell>
        <mxCell id="DhSqUFugcgv-5C6PiQ1s-146" value="" style="endArrow=classic;html=1;rounded=0;entryX=0;entryY=0.5;entryDx=0;entryDy=0;strokeColor=#B20000;" parent="1" edge="1">
          <mxGeometry width="50" height="50" relative="1" as="geometry">
            <mxPoint x="280" y="450" as="sourcePoint" />
            <mxPoint x="1420" y="670" as="targetPoint" />
            <Array as="points">
              <mxPoint x="280" y="700" />
              <mxPoint x="1420" y="700" />
            </Array>
          </mxGeometry>
        </mxCell>
        <mxCell id="DhSqUFugcgv-5C6PiQ1s-147" value="" style="endArrow=classic;html=1;rounded=0;entryX=0;entryY=0.5;entryDx=0;entryDy=0;strokeColor=#B20000;" parent="1" edge="1">
          <mxGeometry width="50" height="50" relative="1" as="geometry">
            <mxPoint x="325" y="450" as="sourcePoint" />
            <mxPoint x="1415" y="245" as="targetPoint" />
            <Array as="points">
              <mxPoint x="325" y="270" />
              <mxPoint x="1415" y="270" />
            </Array>
          </mxGeometry>
        </mxCell>
        <mxCell id="DhSqUFugcgv-5C6PiQ1s-148" value="" style="triangle;whiteSpace=wrap;html=1;rotation=-90;" parent="1" vertex="1">
          <mxGeometry x="1405" y="225" width="10" height="20" as="geometry" />
        </mxCell>
        <mxCell id="DhSqUFugcgv-5C6PiQ1s-157" value="" style="endArrow=none;html=1;rounded=0;exitX=0.695;exitY=1.106;exitDx=0;exitDy=0;exitPerimeter=0;" parent="1" edge="1">
          <mxGeometry width="50" height="50" relative="1" as="geometry">
            <mxPoint x="100.85" y="458.18" as="sourcePoint" />
            <mxPoint x="119.15" y="440" as="targetPoint" />
          </mxGeometry>
        </mxCell>
        <mxCell id="DhSqUFugcgv-5C6PiQ1s-158" value="1 bit" style="text;html=1;align=center;verticalAlign=middle;whiteSpace=wrap;rounded=0;" parent="1" vertex="1">
          <mxGeometry x="80" y="450" width="60" height="30" as="geometry" />
        </mxCell>
        <mxCell id="DhSqUFugcgv-5C6PiQ1s-159" value="" style="endArrow=none;html=1;rounded=0;exitX=0.695;exitY=1.106;exitDx=0;exitDy=0;exitPerimeter=0;" parent="1" edge="1">
          <mxGeometry width="50" height="50" relative="1" as="geometry">
            <mxPoint x="100.85" y="403.18" as="sourcePoint" />
            <mxPoint x="119.15" y="385" as="targetPoint" />
          </mxGeometry>
        </mxCell>
        <mxCell id="DhSqUFugcgv-5C6PiQ1s-160" value="15 bit" style="text;html=1;align=center;verticalAlign=middle;whiteSpace=wrap;rounded=0;" parent="1" vertex="1">
          <mxGeometry x="70" y="390" width="60" height="30" as="geometry" />
        </mxCell>
        <mxCell id="DhSqUFugcgv-5C6PiQ1s-161" value="" style="endArrow=none;html=1;rounded=0;fillColor=#008a00;strokeColor=#005700;" parent="1" edge="1">
          <mxGeometry width="50" height="50" relative="1" as="geometry">
            <mxPoint x="310" y="538" as="sourcePoint" />
            <mxPoint x="330" y="558" as="targetPoint" />
          </mxGeometry>
        </mxCell>
        <mxCell id="DhSqUFugcgv-5C6PiQ1s-162" value="15 bit" style="text;html=1;align=center;verticalAlign=middle;whiteSpace=wrap;rounded=0;" parent="1" vertex="1">
          <mxGeometry x="300" y="498" width="60" height="30" as="geometry" />
        </mxCell>
        <mxCell id="DhSqUFugcgv-5C6PiQ1s-166" value="" style="endArrow=none;html=1;rounded=0;fillColor=#008a00;strokeColor=#005700;" parent="1" edge="1">
          <mxGeometry width="50" height="50" relative="1" as="geometry">
            <mxPoint x="430" y="538" as="sourcePoint" />
            <mxPoint x="450" y="558" as="targetPoint" />
          </mxGeometry>
        </mxCell>
        <mxCell id="DhSqUFugcgv-5C6PiQ1s-167" value="15 bit" style="text;html=1;align=center;verticalAlign=middle;whiteSpace=wrap;rounded=0;" parent="1" vertex="1">
          <mxGeometry x="420" y="498" width="60" height="30" as="geometry" />
        </mxCell>
        <mxCell id="DhSqUFugcgv-5C6PiQ1s-168" value="" style="endArrow=none;html=1;rounded=0;fillColor=#008a00;strokeColor=#005700;" parent="1" edge="1">
          <mxGeometry width="50" height="50" relative="1" as="geometry">
            <mxPoint x="570" y="535" as="sourcePoint" />
            <mxPoint x="590" y="555" as="targetPoint" />
          </mxGeometry>
        </mxCell>
        <mxCell id="DhSqUFugcgv-5C6PiQ1s-169" value="15 bit" style="text;html=1;align=center;verticalAlign=middle;whiteSpace=wrap;rounded=0;" parent="1" vertex="1">
          <mxGeometry x="540" y="508" width="60" height="30" as="geometry" />
        </mxCell>
        <mxCell id="DhSqUFugcgv-5C6PiQ1s-170" value="" style="endArrow=none;html=1;rounded=0;fillColor=#008a00;strokeColor=#005700;" parent="1" edge="1">
          <mxGeometry width="50" height="50" relative="1" as="geometry">
            <mxPoint x="690" y="535" as="sourcePoint" />
            <mxPoint x="710" y="555" as="targetPoint" />
          </mxGeometry>
        </mxCell>
        <mxCell id="DhSqUFugcgv-5C6PiQ1s-171" value="15 bit" style="text;html=1;align=center;verticalAlign=middle;whiteSpace=wrap;rounded=0;" parent="1" vertex="1">
          <mxGeometry x="665" y="508" width="60" height="30" as="geometry" />
        </mxCell>
        <mxCell id="DhSqUFugcgv-5C6PiQ1s-172" value="" style="endArrow=none;html=1;rounded=0;fillColor=#008a00;strokeColor=#005700;" parent="1" edge="1">
          <mxGeometry width="50" height="50" relative="1" as="geometry">
            <mxPoint x="810" y="535" as="sourcePoint" />
            <mxPoint x="830" y="555" as="targetPoint" />
          </mxGeometry>
        </mxCell>
        <mxCell id="DhSqUFugcgv-5C6PiQ1s-173" value="15 bit" style="text;html=1;align=center;verticalAlign=middle;whiteSpace=wrap;rounded=0;" parent="1" vertex="1">
          <mxGeometry x="780" y="508" width="60" height="30" as="geometry" />
        </mxCell>
        <mxCell id="DhSqUFugcgv-5C6PiQ1s-174" value="" style="endArrow=none;html=1;rounded=0;fillColor=#008a00;strokeColor=#005700;" parent="1" edge="1">
          <mxGeometry width="50" height="50" relative="1" as="geometry">
            <mxPoint x="930" y="528" as="sourcePoint" />
            <mxPoint x="950" y="548" as="targetPoint" />
          </mxGeometry>
        </mxCell>
        <mxCell id="DhSqUFugcgv-5C6PiQ1s-175" value="15 bit" style="text;html=1;align=center;verticalAlign=middle;whiteSpace=wrap;rounded=0;" parent="1" vertex="1">
          <mxGeometry x="900" y="498" width="60" height="30" as="geometry" />
        </mxCell>
        <mxCell id="DhSqUFugcgv-5C6PiQ1s-176" value="" style="endArrow=none;html=1;rounded=0;fillColor=#008a00;strokeColor=#005700;" parent="1" edge="1">
          <mxGeometry width="50" height="50" relative="1" as="geometry">
            <mxPoint x="1050" y="535" as="sourcePoint" />
            <mxPoint x="1070" y="555" as="targetPoint" />
          </mxGeometry>
        </mxCell>
        <mxCell id="DhSqUFugcgv-5C6PiQ1s-177" value="15 bit" style="text;html=1;align=center;verticalAlign=middle;whiteSpace=wrap;rounded=0;" parent="1" vertex="1">
          <mxGeometry x="1020" y="508" width="60" height="30" as="geometry" />
        </mxCell>
        <mxCell id="DhSqUFugcgv-5C6PiQ1s-178" value="" style="endArrow=none;html=1;rounded=0;fillColor=#008a00;strokeColor=#005700;" parent="1" edge="1">
          <mxGeometry width="50" height="50" relative="1" as="geometry">
            <mxPoint x="1170" y="535" as="sourcePoint" />
            <mxPoint x="1190" y="555" as="targetPoint" />
          </mxGeometry>
        </mxCell>
        <mxCell id="DhSqUFugcgv-5C6PiQ1s-179" value="15 bit" style="text;html=1;align=center;verticalAlign=middle;whiteSpace=wrap;rounded=0;" parent="1" vertex="1">
          <mxGeometry x="1140" y="508" width="60" height="30" as="geometry" />
        </mxCell>
        <mxCell id="DhSqUFugcgv-5C6PiQ1s-180" value="" style="endArrow=none;html=1;rounded=0;fillColor=#008a00;strokeColor=#005700;" parent="1" edge="1">
          <mxGeometry width="50" height="50" relative="1" as="geometry">
            <mxPoint x="1285" y="538" as="sourcePoint" />
            <mxPoint x="1305" y="558" as="targetPoint" />
          </mxGeometry>
        </mxCell>
        <mxCell id="DhSqUFugcgv-5C6PiQ1s-181" value="15 bit" style="text;html=1;align=center;verticalAlign=middle;whiteSpace=wrap;rounded=0;" parent="1" vertex="1">
          <mxGeometry x="1260" y="498" width="60" height="30" as="geometry" />
        </mxCell>
        <mxCell id="DhSqUFugcgv-5C6PiQ1s-182" value="" style="endArrow=none;html=1;rounded=0;exitX=0.695;exitY=1.106;exitDx=0;exitDy=0;exitPerimeter=0;" parent="1" edge="1">
          <mxGeometry width="50" height="50" relative="1" as="geometry">
            <mxPoint x="1480.85" y="638.1800000000001" as="sourcePoint" />
            <mxPoint x="1499.15" y="620" as="targetPoint" />
          </mxGeometry>
        </mxCell>
        <mxCell id="DhSqUFugcgv-5C6PiQ1s-183" value="15 bit" style="text;html=1;align=center;verticalAlign=middle;whiteSpace=wrap;rounded=0;" parent="1" vertex="1">
          <mxGeometry x="1450" y="625" width="60" height="30" as="geometry" />
        </mxCell>
        <mxCell id="DhSqUFugcgv-5C6PiQ1s-184" value="" style="endArrow=none;html=1;rounded=0;exitX=0.695;exitY=1.106;exitDx=0;exitDy=0;exitPerimeter=0;" parent="1" edge="1">
          <mxGeometry width="50" height="50" relative="1" as="geometry">
            <mxPoint x="1450.85" y="215.00000000000006" as="sourcePoint" />
            <mxPoint x="1469.15" y="196.82" as="targetPoint" />
          </mxGeometry>
        </mxCell>
        <mxCell id="DhSqUFugcgv-5C6PiQ1s-185" value="1 bit" style="text;html=1;align=center;verticalAlign=middle;whiteSpace=wrap;rounded=0;" parent="1" vertex="1">
          <mxGeometry x="1425" y="175" width="60" height="30" as="geometry" />
        </mxCell>
        <mxCell id="Tn2O7yzsJz-Ojs1wFLoF-3" value="" style="endArrow=classic;html=1;rounded=0;entryX=0;entryY=0.5;entryDx=0;entryDy=0;strokeColor=#B20000;" parent="1" target="CbF84web4NkX9h8tGIaV-3" edge="1">
          <mxGeometry width="50" height="50" relative="1" as="geometry">
            <mxPoint x="150" y="450" as="sourcePoint" />
            <mxPoint x="740" y="310" as="targetPoint" />
          </mxGeometry>
        </mxCell>
        <mxCell id="Tn2O7yzsJz-Ojs1wFLoF-4" value="" style="endArrow=classic;html=1;rounded=0;entryX=0;entryY=0.5;entryDx=0;entryDy=0;strokeColor=#B20000;" parent="1" target="DhSqUFugcgv-5C6PiQ1s-16" edge="1">
          <mxGeometry width="50" height="50" relative="1" as="geometry">
            <mxPoint x="220" y="450" as="sourcePoint" />
            <mxPoint x="240" y="415" as="targetPoint" />
            <Array as="points">
              <mxPoint x="220" y="350" />
              <mxPoint x="150" y="350" />
            </Array>
          </mxGeometry>
        </mxCell>
        <mxCell id="Tn2O7yzsJz-Ojs1wFLoF-5" value="en" style="text;html=1;align=center;verticalAlign=middle;whiteSpace=wrap;rounded=0;" parent="1" vertex="1">
          <mxGeometry x="1380" y="635" width="60" height="30" as="geometry" />
        </mxCell>
        <mxCell id="Tn2O7yzsJz-Ojs1wFLoF-6" value="" style="endArrow=classic;html=1;rounded=0;entryX=0;entryY=0.5;entryDx=0;entryDy=0;strokeColor=#006EAF;" parent="1" target="CbF84web4NkX9h8tGIaV-18" edge="1">
          <mxGeometry width="50" height="50" relative="1" as="geometry">
            <mxPoint x="290" y="280" as="sourcePoint" />
            <mxPoint x="670" y="470" as="targetPoint" />
            <Array as="points">
              <mxPoint x="290" y="670" />
              <mxPoint x="1380" y="680" />
              <mxPoint x="1380" y="650" />
            </Array>
          </mxGeometry>
        </mxCell>
        <mxCell id="Tn2O7yzsJz-Ojs1wFLoF-15" value="" style="endArrow=none;html=1;rounded=0;entryX=0.836;entryY=0.013;entryDx=0;entryDy=0;exitX=0;exitY=0;exitDx=0;exitDy=0;entryPerimeter=0;" parent="1" edge="1">
          <mxGeometry width="50" height="50" relative="1" as="geometry">
            <mxPoint x="1430" y="204.43" as="sourcePoint" />
            <mxPoint x="1480.1600000000003" y="204.82" as="targetPoint" />
          </mxGeometry>
        </mxCell>
        <mxCell id="Tn2O7yzsJz-Ojs1wFLoF-20" value="" style="endArrow=classic;html=1;rounded=0;fillColor=#f0a30a;strokeColor=#BD7000;entryX=0.75;entryY=0;entryDx=0;entryDy=0;" parent="1" target="DhSqUFugcgv-5C6PiQ1s-14" edge="1">
          <mxGeometry width="50" height="50" relative="1" as="geometry">
            <mxPoint x="210" y="330" as="sourcePoint" />
            <mxPoint x="200" y="462.42999999999995" as="targetPoint" />
            <Array as="points">
              <mxPoint x="210" y="305" />
            </Array>
          </mxGeometry>
        </mxCell>
        <mxCell id="Tn2O7yzsJz-Ojs1wFLoF-22" value="" style="endArrow=none;html=1;rounded=0;exitX=0.5;exitY=0;exitDx=0;exitDy=0;entryX=1;entryY=0.5;entryDx=0;entryDy=0;" parent="1" source="CbF84web4NkX9h8tGIaV-17" target="Z68hn9O-Tgvw7mRsMY7y-247" edge="1">
          <mxGeometry width="50" height="50" relative="1" as="geometry">
            <mxPoint x="1370" y="500" as="sourcePoint" />
            <mxPoint x="1420" y="450" as="targetPoint" />
          </mxGeometry>
        </mxCell>
        <mxCell id="ELfjQddBo_34LwwaDJxb-2" value="" style="endArrow=none;html=1;rounded=0;fillColor=#008a00;strokeColor=#005700;exitX=0.5;exitY=0;exitDx=0;exitDy=0;" edge="1" parent="1" source="ELfjQddBo_34LwwaDJxb-3">
          <mxGeometry width="50" height="50" relative="1" as="geometry">
            <mxPoint x="260" y="560" as="sourcePoint" />
            <mxPoint x="310" y="560" as="targetPoint" />
          </mxGeometry>
        </mxCell>
        <mxCell id="ELfjQddBo_34LwwaDJxb-3" value="" style="rounded=1;whiteSpace=wrap;html=1;direction=south;" vertex="1" parent="1">
          <mxGeometry x="130" y="520" width="40" height="80" as="geometry" />
        </mxCell>
        <mxCell id="ELfjQddBo_34LwwaDJxb-5" value="rst" style="text;html=1;align=center;verticalAlign=middle;whiteSpace=wrap;rounded=0;" vertex="1" parent="1">
          <mxGeometry x="130" y="565" width="60" height="30" as="geometry" />
        </mxCell>
        <mxCell id="ELfjQddBo_34LwwaDJxb-6" value="" style="triangle;whiteSpace=wrap;html=1;rotation=-90;" vertex="1" parent="1">
          <mxGeometry x="145" y="585" width="10" height="20" as="geometry" />
        </mxCell>
        <mxCell id="ELfjQddBo_34LwwaDJxb-7" value="&lt;b&gt;reg_coef&lt;/b&gt;" style="text;html=1;align=center;verticalAlign=middle;whiteSpace=wrap;rounded=0;" vertex="1" parent="1">
          <mxGeometry x="120" y="495" width="60" height="30" as="geometry" />
        </mxCell>
        <mxCell id="ELfjQddBo_34LwwaDJxb-9" value="" style="endArrow=none;html=1;rounded=0;fillColor=#008a00;strokeColor=#005700;" edge="1" parent="1">
          <mxGeometry width="50" height="50" relative="1" as="geometry">
            <mxPoint x="310" y="560" as="sourcePoint" />
            <mxPoint x="1280" y="560" as="targetPoint" />
          </mxGeometry>
        </mxCell>
        <mxCell id="ELfjQddBo_34LwwaDJxb-12" value="" style="endArrow=none;html=1;rounded=0;fillColor=#008a00;strokeColor=#005700;" edge="1" parent="1">
          <mxGeometry width="50" height="50" relative="1" as="geometry">
            <mxPoint x="90" y="560" as="sourcePoint" />
            <mxPoint x="130" y="560" as="targetPoint" />
          </mxGeometry>
        </mxCell>
        <mxCell id="ELfjQddBo_34LwwaDJxb-13" value="" style="triangle;whiteSpace=wrap;html=1;" vertex="1" parent="1">
          <mxGeometry x="80" y="550" width="10" height="20" as="geometry" />
        </mxCell>
        <mxCell id="ELfjQddBo_34LwwaDJxb-14" value="&lt;span style=&quot;font-size: 22px;&quot;&gt;B&lt;/span&gt;" style="text;html=1;align=center;verticalAlign=middle;resizable=0;points=[];autosize=1;strokeColor=none;fillColor=none;" vertex="1" parent="1">
          <mxGeometry x="45" y="540" width="40" height="40" as="geometry" />
        </mxCell>
        <mxCell id="ELfjQddBo_34LwwaDJxb-15" value="" style="endArrow=classic;html=1;rounded=0;entryX=0;entryY=0.5;entryDx=0;entryDy=0;strokeColor=#B20000;" edge="1" parent="1" target="ELfjQddBo_34LwwaDJxb-6">
          <mxGeometry width="50" height="50" relative="1" as="geometry">
            <mxPoint x="280" y="620" as="sourcePoint" />
            <mxPoint x="239.9" y="600" as="targetPoint" />
            <Array as="points">
              <mxPoint x="150" y="620" />
            </Array>
          </mxGeometry>
        </mxCell>
        <mxCell id="ELfjQddBo_34LwwaDJxb-16" value="" style="endArrow=classic;html=1;rounded=0;fillColor=#f0a30a;strokeColor=#BD7000;" edge="1" parent="1">
          <mxGeometry width="50" height="50" relative="1" as="geometry">
            <mxPoint x="230" y="330" as="sourcePoint" />
            <mxPoint x="169.99744186046516" y="582.5" as="targetPoint" />
            <Array as="points">
              <mxPoint x="230" y="583" />
            </Array>
          </mxGeometry>
        </mxCell>
        <mxCell id="ELfjQddBo_34LwwaDJxb-17" value="" style="endArrow=none;html=1;rounded=0;exitX=0.695;exitY=1.106;exitDx=0;exitDy=0;exitPerimeter=0;" edge="1" parent="1">
          <mxGeometry width="50" height="50" relative="1" as="geometry">
            <mxPoint x="100.85" y="568.1800000000001" as="sourcePoint" />
            <mxPoint x="119.15" y="550" as="targetPoint" />
          </mxGeometry>
        </mxCell>
        <mxCell id="ELfjQddBo_34LwwaDJxb-18" value="15 bit" style="text;html=1;align=center;verticalAlign=middle;whiteSpace=wrap;rounded=0;" vertex="1" parent="1">
          <mxGeometry x="70" y="555" width="60" height="30" as="geometry" />
        </mxCell>
      </root>
    </mxGraphModel>
  </diagram>
</mxfile>
